<svg width="1440" height="898" viewBox="0 0 1440 898" fill="none" xmlns="http://www.w3.org/2000/svg">
<path d="M-11.5 909.5V183.518L159.5 189.583V909.5H-11.5Z" fill="#C7846A" stroke="black"/>
<path fill-rule="evenodd" clip-rule="evenodd" d="M3.09766 180.5L163.16 184.062C165.387 185.195 166.5 186.094 166.5 186.758V187.344L165 230.5L161.227 896.152V898.145C160.562 900.332 157.711 901.426 152.672 901.426C149.977 901.426 52.7695 900.762 41.0508 899.434C40.582 899.434 39.918 899.648 39.0586 900.078C25.6211 900.078 24.1094 903.984 -0.5 900.078L-2.38281 894.582V891.945C-2.38281 885.656 -7.19531 238.586 -2.82031 210.734C-2.82031 191.516 -1.51172 181.906 1.10547 181.906L3.09766 180.5ZM3.74219 195.031C3.74219 191.281 4.40625 188.625 5.73438 187.062C13.3125 187.531 20.7344 188.195 28 189.055C63 190.969 159.879 189.727 159.879 191.328C156.832 211.016 155.309 865.078 155.309 893.516L154.02 895.508L41.6953 893.516C41.6953 893.516 5.44922 893.43 3.53516 890.656V888.02C8.33984 860.012 3.74219 209.016 3.74219 195.031Z" fill="black"/>
<g style="mix-blend-mode:overlay">
<path fill-rule="evenodd" clip-rule="evenodd" d="M52 221H55.5H104.5H108L104.5 224.5V291.5L108 295H104.5H55.5H52L55.5 291.5V224.5L52 221ZM59.1194 225.798C59.328 225.775 59.4218 225.663 59.4008 225.46C65.0511 225.481 67.882 225.547 67.8935 225.657C74.6374 225.347 78.025 225.344 78.0565 225.648L77.3074 231.836C77.7672 239.828 77.6208 243.865 76.868 243.945L72.7598 244.384C70.7556 244.598 66.645 244.571 60.4282 244.303L59.816 244.369C59.4905 244.236 59.3201 244.096 59.3049 243.948C58.9922 240.925 58.9044 239.057 59.0415 238.344C59.4291 232.161 59.5467 228.333 59.3941 226.859L59.1194 225.798ZM82.1194 225.798C82.328 225.775 82.4218 225.663 82.4008 225.46C88.0511 225.481 90.882 225.547 90.8935 225.657C97.6374 225.347 101.025 225.344 101.056 225.648L100.307 231.836C100.767 239.828 100.621 243.865 99.868 243.945L95.7598 244.384C93.7556 244.598 89.645 244.571 83.4282 244.303L82.816 244.369C82.4905 244.236 82.3201 244.096 82.3049 243.948C81.9922 240.925 81.9044 239.057 82.0415 238.344C82.4291 232.161 82.5467 228.333 82.3941 226.859L82.1194 225.798ZM59.4008 248.46C59.4218 248.663 59.328 248.775 59.1194 248.798L59.3941 249.859C59.5467 251.333 59.4291 255.161 59.0415 261.344C58.9044 262.057 58.9922 263.925 59.3049 266.948C59.3201 267.096 59.4905 267.236 59.816 267.369L60.4282 267.303C66.645 267.571 70.7556 267.598 72.7598 267.384L76.868 266.945C77.6208 266.865 77.7672 262.828 77.3074 254.836L78.0565 248.648C78.025 248.344 74.6374 248.347 67.8935 248.657C67.882 248.547 65.0511 248.481 59.4008 248.46ZM82.2976 267.381C82.2753 267.172 82.1628 267.078 81.9601 267.099C81.9809 261.449 82.0466 258.618 82.1571 258.607C81.8468 251.863 81.8437 248.475 82.1479 248.444L88.3359 249.193C96.3284 248.733 100.365 248.879 100.445 249.632L100.884 253.74C101.098 255.744 101.071 259.855 100.803 266.072L100.869 266.684C100.736 267.01 100.596 267.18 100.448 267.195C97.4253 267.508 95.557 267.596 94.8435 267.458C88.6615 267.071 84.8331 266.953 83.3585 267.106L82.2976 267.381ZM101.04 271.901C100.837 271.922 100.725 271.828 100.702 271.619L99.6415 271.894C98.1669 272.047 94.3385 271.929 88.1565 271.542C87.443 271.404 85.5747 271.492 82.5518 271.805C82.4043 271.82 82.2641 271.99 82.1311 272.316L82.1965 272.928C81.9287 279.145 81.9019 283.256 82.116 285.26L82.5548 289.368C82.6352 290.121 86.6716 290.267 94.6641 289.807L100.852 290.556C101.156 290.525 101.153 287.137 100.843 280.393C100.953 280.382 101.019 277.551 101.04 271.901ZM77.8806 290.202C77.672 290.225 77.5782 290.337 77.5992 290.54C71.9489 290.519 69.118 290.453 69.1065 290.343C62.3626 290.653 58.975 290.656 58.9435 290.352L59.6926 284.164C59.2328 276.172 59.3792 272.135 60.132 272.055L64.2402 271.616C66.2444 271.402 70.355 271.429 76.5718 271.697L77.184 271.631C77.5095 271.764 77.6799 271.904 77.6951 272.052C78.0078 275.075 78.0956 276.943 77.9585 277.656C77.5709 283.839 77.4533 287.667 77.6059 289.141L77.8806 290.202Z" fill="black"/>
</g>
<g style="mix-blend-mode:overlay">
<path fill-rule="evenodd" clip-rule="evenodd" d="M52 378H55.5H104.5H108L104.5 381.5V448.5L108 452H104.5H55.5H52L55.5 448.5V381.5L52 378ZM59.1194 382.798C59.328 382.775 59.4218 382.663 59.4008 382.46C65.0511 382.481 67.882 382.547 67.8935 382.657C74.6374 382.347 78.025 382.344 78.0565 382.648L77.3074 388.836C77.7672 396.828 77.6208 400.865 76.868 400.945L72.7598 401.384C70.7556 401.598 66.645 401.571 60.4282 401.303L59.816 401.369C59.4905 401.236 59.3201 401.096 59.3049 400.948C58.9922 397.925 58.9044 396.057 59.0415 395.344C59.4291 389.161 59.5467 385.333 59.3941 383.859L59.1194 382.798ZM82.1194 382.798C82.328 382.775 82.4218 382.663 82.4008 382.46C88.0511 382.481 90.882 382.547 90.8935 382.657C97.6374 382.347 101.025 382.344 101.056 382.648L100.307 388.836C100.767 396.828 100.621 400.865 99.868 400.945L95.7598 401.384C93.7556 401.598 89.645 401.571 83.4282 401.303L82.816 401.369C82.4905 401.236 82.3201 401.096 82.3049 400.948C81.9922 397.925 81.9044 396.057 82.0415 395.344C82.4291 389.161 82.5467 385.333 82.3941 383.859L82.1194 382.798ZM59.4008 405.46C59.4218 405.663 59.328 405.775 59.1194 405.798L59.3941 406.859C59.5467 408.333 59.4291 412.161 59.0415 418.344C58.9044 419.057 58.9922 420.925 59.3049 423.948C59.3201 424.096 59.4905 424.236 59.816 424.369L60.4282 424.303C66.645 424.571 70.7556 424.598 72.7598 424.384L76.868 423.945C77.6208 423.865 77.7672 419.828 77.3074 411.836L78.0565 405.648C78.025 405.344 74.6374 405.347 67.8935 405.657C67.882 405.547 65.0511 405.481 59.4008 405.46ZM82.2976 424.381C82.2753 424.172 82.1628 424.078 81.9601 424.099C81.9809 418.449 82.0466 415.618 82.1571 415.607C81.8468 408.863 81.8437 405.475 82.1479 405.444L88.3359 406.193C96.3284 405.733 100.365 405.879 100.445 406.632L100.884 410.74C101.098 412.744 101.071 416.855 100.803 423.072L100.869 423.684C100.736 424.01 100.596 424.18 100.448 424.195C97.4253 424.508 95.557 424.596 94.8435 424.458C88.6615 424.071 84.8331 423.953 83.3585 424.106L82.2976 424.381ZM101.04 428.901C100.837 428.922 100.725 428.828 100.702 428.619L99.6415 428.894C98.1669 429.047 94.3385 428.929 88.1565 428.542C87.443 428.404 85.5747 428.492 82.5518 428.805C82.4043 428.82 82.2641 428.99 82.1311 429.316L82.1965 429.928C81.9287 436.145 81.9019 440.256 82.116 442.26L82.5548 446.368C82.6352 447.121 86.6716 447.267 94.6641 446.807L100.852 447.556C101.156 447.525 101.153 444.137 100.843 437.393C100.953 437.382 101.019 434.551 101.04 428.901ZM77.8806 447.202C77.672 447.225 77.5782 447.337 77.5992 447.54C71.9489 447.519 69.118 447.453 69.1065 447.343C62.3626 447.653 58.975 447.656 58.9435 447.352L59.6926 441.164C59.2328 433.172 59.3792 429.135 60.132 429.055L64.2402 428.616C66.2444 428.402 70.355 428.429 76.5718 428.697L77.184 428.631C77.5095 428.764 77.6799 428.904 77.6951 429.052C78.0078 432.075 78.0956 433.943 77.9585 434.656C77.5709 440.839 77.4533 444.667 77.6059 446.141L77.8806 447.202Z" fill="black"/>
</g>
<g style="mix-blend-mode:overlay">
<path fill-rule="evenodd" clip-rule="evenodd" d="M52 535H55.5H104.5H108L104.5 538.5V605.5L108 609H104.5H55.5H52L55.5 605.5V538.5L52 535ZM59.1194 539.798C59.328 539.775 59.4218 539.663 59.4008 539.46C65.0511 539.481 67.882 539.547 67.8935 539.657C74.6374 539.347 78.025 539.344 78.0565 539.648L77.3074 545.836C77.7672 553.828 77.6208 557.865 76.868 557.945L72.7598 558.384C70.7556 558.598 66.645 558.571 60.4282 558.303L59.816 558.369C59.4905 558.236 59.3201 558.096 59.3049 557.948C58.9922 554.925 58.9044 553.057 59.0415 552.344C59.4291 546.161 59.5467 542.333 59.3941 540.859L59.1194 539.798ZM82.1194 539.798C82.328 539.775 82.4218 539.663 82.4008 539.46C88.0511 539.481 90.882 539.547 90.8935 539.657C97.6374 539.347 101.025 539.344 101.056 539.648L100.307 545.836C100.767 553.828 100.621 557.865 99.868 557.945L95.7598 558.384C93.7556 558.598 89.645 558.571 83.4282 558.303L82.816 558.369C82.4905 558.236 82.3201 558.096 82.3049 557.948C81.9922 554.925 81.9044 553.057 82.0415 552.344C82.4291 546.161 82.5467 542.333 82.3941 540.859L82.1194 539.798ZM59.4008 562.46C59.4218 562.663 59.328 562.775 59.1194 562.798L59.3941 563.859C59.5467 565.333 59.4291 569.161 59.0415 575.344C58.9044 576.057 58.9922 577.925 59.3049 580.948C59.3201 581.096 59.4905 581.236 59.816 581.369L60.4282 581.303C66.645 581.571 70.7556 581.598 72.7598 581.384L76.868 580.945C77.6208 580.865 77.7672 576.828 77.3074 568.836L78.0565 562.648C78.025 562.344 74.6374 562.347 67.8935 562.657C67.882 562.547 65.0511 562.481 59.4008 562.46ZM82.2976 581.381C82.2753 581.172 82.1628 581.078 81.9601 581.099C81.9809 575.449 82.0466 572.618 82.1571 572.607C81.8468 565.863 81.8437 562.475 82.1479 562.444L88.3359 563.193C96.3284 562.733 100.365 562.879 100.445 563.632L100.884 567.74C101.098 569.744 101.071 573.855 100.803 580.072L100.869 580.684C100.736 581.01 100.596 581.18 100.448 581.195C97.4253 581.508 95.557 581.596 94.8435 581.458C88.6615 581.071 84.8331 580.953 83.3585 581.106L82.2976 581.381ZM101.04 585.901C100.837 585.922 100.725 585.828 100.702 585.619L99.6415 585.894C98.1669 586.047 94.3385 585.929 88.1565 585.542C87.443 585.404 85.5747 585.492 82.5518 585.805C82.4043 585.82 82.2641 585.99 82.1311 586.316L82.1965 586.928C81.9287 593.145 81.9019 597.256 82.116 599.26L82.5548 603.368C82.6352 604.121 86.6716 604.267 94.6641 603.807L100.852 604.556C101.156 604.525 101.153 601.137 100.843 594.393C100.953 594.382 101.019 591.551 101.04 585.901ZM77.8806 604.202C77.672 604.225 77.5782 604.337 77.5992 604.54C71.9489 604.519 69.118 604.453 69.1065 604.343C62.3626 604.653 58.975 604.656 58.9435 604.352L59.6926 598.164C59.2328 590.172 59.3792 586.135 60.132 586.055L64.2402 585.616C66.2444 585.402 70.355 585.429 76.5718 585.697L77.184 585.631C77.5095 585.764 77.6799 585.904 77.6951 586.052C78.0078 589.075 78.0956 590.943 77.9585 591.656C77.5709 597.839 77.4533 601.667 77.6059 603.141L77.8806 604.202Z" fill="black"/>
</g>
<g style="mix-blend-mode:overlay">
<path fill-rule="evenodd" clip-rule="evenodd" d="M52 692H55.5H104.5H108L104.5 695.5V762.5L108 766H104.5H55.5H52L55.5 762.5V695.5L52 692ZM59.1194 696.798C59.328 696.775 59.4218 696.663 59.4008 696.46C65.0511 696.481 67.882 696.547 67.8935 696.657C74.6374 696.347 78.025 696.344 78.0565 696.648L77.3074 702.836C77.7672 710.828 77.6208 714.865 76.868 714.945L72.7598 715.384C70.7556 715.598 66.645 715.571 60.4282 715.303L59.816 715.369C59.4905 715.236 59.3201 715.096 59.3049 714.948C58.9922 711.925 58.9044 710.057 59.0415 709.344C59.4291 703.161 59.5467 699.333 59.3941 697.859L59.1194 696.798ZM82.1194 696.798C82.328 696.775 82.4218 696.663 82.4008 696.46C88.0511 696.481 90.882 696.547 90.8935 696.657C97.6374 696.347 101.025 696.344 101.056 696.648L100.307 702.836C100.767 710.828 100.621 714.865 99.868 714.945L95.7598 715.384C93.7556 715.598 89.645 715.571 83.4282 715.303L82.816 715.369C82.4905 715.236 82.3201 715.096 82.3049 714.948C81.9922 711.925 81.9044 710.057 82.0415 709.344C82.4291 703.161 82.5467 699.333 82.3941 697.859L82.1194 696.798ZM59.4008 719.46C59.4218 719.663 59.328 719.775 59.1194 719.798L59.3941 720.859C59.5467 722.333 59.4291 726.161 59.0415 732.344C58.9044 733.057 58.9922 734.925 59.3049 737.948C59.3201 738.096 59.4905 738.236 59.816 738.369L60.4282 738.303C66.645 738.571 70.7556 738.598 72.7598 738.384L76.868 737.945C77.6208 737.865 77.7672 733.828 77.3074 725.836L78.0565 719.648C78.025 719.344 74.6374 719.347 67.8935 719.657C67.882 719.547 65.0511 719.481 59.4008 719.46ZM82.2976 738.381C82.2753 738.172 82.1628 738.078 81.9601 738.099C81.9809 732.449 82.0466 729.618 82.1571 729.607C81.8468 722.863 81.8437 719.475 82.1479 719.444L88.3359 720.193C96.3284 719.733 100.365 719.879 100.445 720.632L100.884 724.74C101.098 726.744 101.071 730.855 100.803 737.072L100.869 737.684C100.736 738.01 100.596 738.18 100.448 738.195C97.4253 738.508 95.557 738.596 94.8435 738.458C88.6615 738.071 84.8331 737.953 83.3585 738.106L82.2976 738.381ZM101.04 742.901C100.837 742.922 100.725 742.828 100.702 742.619L99.6415 742.894C98.1669 743.047 94.3385 742.929 88.1565 742.542C87.443 742.404 85.5747 742.492 82.5518 742.805C82.4043 742.82 82.2641 742.99 82.1311 743.316L82.1965 743.928C81.9287 750.145 81.9019 754.256 82.116 756.26L82.5548 760.368C82.6352 761.121 86.6716 761.267 94.6641 760.807L100.852 761.556C101.156 761.525 101.153 758.137 100.843 751.393C100.953 751.382 101.019 748.551 101.04 742.901ZM77.8806 761.202C77.672 761.225 77.5782 761.337 77.5992 761.54C71.9489 761.519 69.118 761.453 69.1065 761.343C62.3626 761.653 58.975 761.656 58.9435 761.352L59.6926 755.164C59.2328 747.172 59.3792 743.135 60.132 743.055L64.2402 742.616C66.2444 742.402 70.355 742.429 76.5718 742.697L77.184 742.631C77.5095 742.764 77.6799 742.904 77.6951 743.052C78.0078 746.075 78.0956 747.943 77.9585 748.656C77.5709 754.839 77.4533 758.667 77.6059 760.141L77.8806 761.202Z" fill="black"/>
</g>
<g style="mix-blend-mode:overlay">
<path fill-rule="evenodd" clip-rule="evenodd" d="M52 849H55.5H104.5H108L104.5 852.5V919.5L108 923H104.5H55.5H52L55.5 919.5V852.5L52 849ZM59.1194 853.798C59.328 853.775 59.4218 853.663 59.4008 853.46C65.0511 853.481 67.882 853.547 67.8935 853.657C74.6374 853.347 78.025 853.344 78.0565 853.648L77.3074 859.836C77.7672 867.828 77.6208 871.865 76.868 871.945L72.7598 872.384C70.7556 872.598 66.645 872.571 60.4282 872.303L59.816 872.369C59.4905 872.236 59.3201 872.096 59.3049 871.948C58.9922 868.925 58.9044 867.057 59.0415 866.344C59.4291 860.161 59.5467 856.333 59.3941 854.859L59.1194 853.798ZM82.1194 853.798C82.328 853.775 82.4218 853.663 82.4008 853.46C88.0511 853.481 90.882 853.547 90.8935 853.657C97.6374 853.347 101.025 853.344 101.056 853.648L100.307 859.836C100.767 867.828 100.621 871.865 99.868 871.945L95.7598 872.384C93.7556 872.598 89.645 872.571 83.4282 872.303L82.816 872.369C82.4905 872.236 82.3201 872.096 82.3049 871.948C81.9922 868.925 81.9044 867.057 82.0415 866.344C82.4291 860.161 82.5467 856.333 82.3941 854.859L82.1194 853.798ZM59.4008 876.46C59.4218 876.663 59.328 876.775 59.1194 876.798L59.3941 877.859C59.5467 879.333 59.4291 883.161 59.0415 889.344C58.9044 890.057 58.9922 891.925 59.3049 894.948C59.3201 895.096 59.4905 895.236 59.816 895.369L60.4282 895.303C66.645 895.571 70.7556 895.598 72.7598 895.384L76.868 894.945C77.6208 894.865 77.7672 890.828 77.3074 882.836L78.0565 876.648C78.025 876.344 74.6374 876.347 67.8935 876.657C67.882 876.547 65.0511 876.481 59.4008 876.46ZM82.2976 895.381C82.2753 895.172 82.1628 895.078 81.9601 895.099C81.9809 889.449 82.0466 886.618 82.1571 886.607C81.8468 879.863 81.8437 876.475 82.1479 876.444L88.3359 877.193C96.3284 876.733 100.365 876.879 100.445 877.632L100.884 881.74C101.098 883.744 101.071 887.855 100.803 894.072L100.869 894.684C100.736 895.01 100.596 895.18 100.448 895.195C97.4253 895.508 95.557 895.596 94.8435 895.458C88.6615 895.071 84.8331 894.953 83.3585 895.106L82.2976 895.381ZM101.04 899.901C100.837 899.922 100.725 899.828 100.702 899.619L99.6415 899.894C98.1669 900.047 94.3385 899.929 88.1565 899.542C87.443 899.404 85.5747 899.492 82.5518 899.805C82.4043 899.82 82.2641 899.99 82.1311 900.316L82.1965 900.928C81.9287 907.145 81.9019 911.256 82.116 913.26L82.5548 917.368C82.6352 918.121 86.6716 918.267 94.6641 917.807L100.852 918.556C101.156 918.525 101.153 915.137 100.843 908.393C100.953 908.382 101.019 905.551 101.04 899.901ZM77.8806 918.202C77.672 918.225 77.5782 918.337 77.5992 918.54C71.9489 918.519 69.118 918.453 69.1065 918.343C62.3626 918.653 58.975 918.656 58.9435 918.352L59.6926 912.164C59.2328 904.172 59.3792 900.135 60.132 900.055L64.2402 899.616C66.2444 899.402 70.355 899.429 76.5718 899.697L77.184 899.631C77.5095 899.764 77.6799 899.904 77.6951 900.052C78.0078 903.075 78.0956 904.943 77.9585 905.656C77.5709 911.839 77.4533 915.667 77.6059 917.141L77.8806 918.202Z" fill="black"/>
</g>
<path d="M158 330L340 326.5L342.5 898H160.5L158 330Z" fill="#CDC4B3"/>
<path d="M345.875 325C345.875 325.664 346.539 326.328 347.867 326.992L346.578 357.812C347.438 378.906 347.867 879.332 347.867 891.09C347.867 894.801 346.109 897.867 342.594 900.289C338.609 900.289 231.383 900.504 220.914 900.934C216.578 900.934 207.613 900.719 194.02 900.289C183.043 900.719 174.293 900.934 167.77 900.934C159.449 900.934 155.289 898.961 155.289 895.016C154.43 887.203 154 397.285 154 393.262C156.188 372.363 157.281 360.547 157.281 357.812C156.852 350.625 156.637 345.176 156.637 341.465C157.418 332.676 157.164 328 159 328C183.531 326.711 313.531 325.898 345.875 325ZM162.555 345.391C162.984 348.398 163.199 350.82 163.199 352.656V361.152C163.199 366.27 162.105 376.777 159.918 392.676C159.918 404.473 161.441 894.371 164.488 894.371L167.77 895.016C181.793 894.586 190.992 894.371 195.367 894.371C201.656 894.371 208.863 894.586 216.988 895.016C221.52 894.586 329.176 894.371 339.957 894.371L341.305 892.438C341.305 888.844 341.52 885.992 341.949 883.883C341.051 861.773 340.602 360.469 340.602 347.969L341.305 345.391C340.836 344.648 340.602 343.555 340.602 342.109C340.602 341.445 340.836 337.949 341.305 331.621C340.836 331.621 340.602 331.387 340.602 330.918C325.836 331.699 203.316 332.598 173.043 333.613C166.48 333.613 163.199 334.922 163.199 337.539C163.199 342.773 162.984 345.391 162.555 345.391Z" fill="black"/>
<g style="mix-blend-mode:overlay">
<path fill-rule="evenodd" clip-rule="evenodd" d="M223 378H226.5H275.5H279L275.5 381.5V448.5L279 452H275.5H226.5H223L226.5 448.5V381.5L223 378ZM230.119 382.798C230.328 382.775 230.422 382.663 230.401 382.46C236.051 382.481 238.882 382.547 238.893 382.657C245.637 382.347 249.025 382.344 249.056 382.648L248.307 388.836C248.767 396.828 248.621 400.865 247.868 400.945L243.76 401.384C241.756 401.598 237.645 401.571 231.428 401.303L230.816 401.369C230.49 401.236 230.32 401.096 230.305 400.948C229.992 397.925 229.904 396.057 230.042 395.344C230.429 389.161 230.547 385.333 230.394 383.859L230.119 382.798ZM253.119 382.798C253.328 382.775 253.422 382.663 253.401 382.46C259.051 382.481 261.882 382.547 261.893 382.657C268.637 382.347 272.025 382.344 272.056 382.648L271.307 388.836C271.767 396.828 271.621 400.865 270.868 400.945L266.76 401.384C264.756 401.598 260.645 401.571 254.428 401.303L253.816 401.369C253.49 401.236 253.32 401.096 253.305 400.948C252.992 397.925 252.904 396.057 253.042 395.344C253.429 389.161 253.547 385.333 253.394 383.859L253.119 382.798ZM230.401 405.46C230.422 405.663 230.328 405.775 230.119 405.798L230.394 406.859C230.547 408.333 230.429 412.161 230.042 418.344C229.904 419.057 229.992 420.925 230.305 423.948C230.32 424.096 230.49 424.236 230.816 424.369L231.428 424.303C237.645 424.571 241.756 424.598 243.76 424.384L247.868 423.945C248.621 423.865 248.767 419.828 248.307 411.836L249.056 405.648C249.025 405.344 245.637 405.347 238.893 405.657C238.882 405.547 236.051 405.481 230.401 405.46ZM253.298 424.381C253.275 424.172 253.163 424.078 252.96 424.099C252.981 418.449 253.047 415.618 253.157 415.607C252.847 408.863 252.844 405.475 253.148 405.444L259.336 406.193C267.328 405.733 271.365 405.879 271.445 406.632L271.884 410.74C272.098 412.744 272.071 416.855 271.803 423.072L271.869 423.684C271.736 424.01 271.596 424.18 271.448 424.195C268.425 424.508 266.557 424.596 265.844 424.458C259.661 424.071 255.833 423.953 254.359 424.106L253.298 424.381ZM272.04 428.901C271.837 428.922 271.725 428.828 271.702 428.619L270.641 428.894C269.167 429.047 265.339 428.929 259.156 428.542C258.443 428.404 256.575 428.492 253.552 428.805C253.404 428.82 253.264 428.99 253.131 429.316L253.197 429.928C252.929 436.145 252.902 440.256 253.116 442.26L253.555 446.368C253.635 447.121 257.672 447.267 265.664 446.807L271.852 447.556C272.156 447.525 272.153 444.137 271.843 437.393C271.953 437.382 272.019 434.551 272.04 428.901ZM248.881 447.202C248.672 447.225 248.578 447.337 248.599 447.54C242.949 447.519 240.118 447.453 240.107 447.343C233.363 447.653 229.975 447.656 229.944 447.352L230.693 441.164C230.233 433.172 230.379 429.135 231.132 429.055L235.24 428.616C237.244 428.402 241.355 428.429 247.572 428.697L248.184 428.631C248.51 428.764 248.68 428.904 248.695 429.052C249.008 432.075 249.096 433.943 248.958 434.656C248.571 440.839 248.453 444.667 248.606 446.141L248.881 447.202Z" fill="black"/>
</g>
<g style="mix-blend-mode:overlay">
<path fill-rule="evenodd" clip-rule="evenodd" d="M226 535H229.5H278.5H282L278.5 538.5V605.5L282 609H278.5H229.5H226L229.5 605.5V538.5L226 535ZM233.119 539.798C233.328 539.775 233.422 539.663 233.401 539.46C239.051 539.481 241.882 539.547 241.893 539.657C248.637 539.347 252.025 539.344 252.056 539.648L251.307 545.836C251.767 553.828 251.621 557.865 250.868 557.945L246.76 558.384C244.756 558.598 240.645 558.571 234.428 558.303L233.816 558.369C233.49 558.236 233.32 558.096 233.305 557.948C232.992 554.925 232.904 553.057 233.042 552.344C233.429 546.161 233.547 542.333 233.394 540.859L233.119 539.798ZM256.119 539.798C256.328 539.775 256.422 539.663 256.401 539.46C262.051 539.481 264.882 539.547 264.893 539.657C271.637 539.347 275.025 539.344 275.056 539.648L274.307 545.836C274.767 553.828 274.621 557.865 273.868 557.945L269.76 558.384C267.756 558.598 263.645 558.571 257.428 558.303L256.816 558.369C256.49 558.236 256.32 558.096 256.305 557.948C255.992 554.925 255.904 553.057 256.042 552.344C256.429 546.161 256.547 542.333 256.394 540.859L256.119 539.798ZM233.401 562.46C233.422 562.663 233.328 562.775 233.119 562.798L233.394 563.859C233.547 565.333 233.429 569.161 233.042 575.344C232.904 576.057 232.992 577.925 233.305 580.948C233.32 581.096 233.49 581.236 233.816 581.369L234.428 581.303C240.645 581.571 244.756 581.598 246.76 581.384L250.868 580.945C251.621 580.865 251.767 576.828 251.307 568.836L252.056 562.648C252.025 562.344 248.637 562.347 241.893 562.657C241.882 562.547 239.051 562.481 233.401 562.46ZM256.298 581.381C256.275 581.172 256.163 581.078 255.96 581.099C255.981 575.449 256.047 572.618 256.157 572.607C255.847 565.863 255.844 562.475 256.148 562.444L262.336 563.193C270.328 562.733 274.365 562.879 274.445 563.632L274.884 567.74C275.098 569.744 275.071 573.855 274.803 580.072L274.869 580.684C274.736 581.01 274.596 581.18 274.448 581.195C271.425 581.508 269.557 581.596 268.844 581.458C262.661 581.071 258.833 580.953 257.359 581.106L256.298 581.381ZM275.04 585.901C274.837 585.922 274.725 585.828 274.702 585.619L273.641 585.894C272.167 586.047 268.339 585.929 262.156 585.542C261.443 585.404 259.575 585.492 256.552 585.805C256.404 585.82 256.264 585.99 256.131 586.316L256.197 586.928C255.929 593.145 255.902 597.256 256.116 599.26L256.555 603.368C256.635 604.121 260.672 604.267 268.664 603.807L274.852 604.556C275.156 604.525 275.153 601.137 274.843 594.393C274.953 594.382 275.019 591.551 275.04 585.901ZM251.881 604.202C251.672 604.225 251.578 604.337 251.599 604.54C245.949 604.519 243.118 604.453 243.107 604.343C236.363 604.653 232.975 604.656 232.944 604.352L233.693 598.164C233.233 590.172 233.379 586.135 234.132 586.055L238.24 585.616C240.244 585.402 244.355 585.429 250.572 585.697L251.184 585.631C251.51 585.764 251.68 585.904 251.695 586.052C252.008 589.075 252.096 590.943 251.958 591.656C251.571 597.839 251.453 601.667 251.606 603.141L251.881 604.202Z" fill="black"/>
</g>
<g style="mix-blend-mode:overlay">
<path fill-rule="evenodd" clip-rule="evenodd" d="M223 692H226.5H275.5H279L275.5 695.5V762.5L279 766H275.5H226.5H223L226.5 762.5V695.5L223 692ZM230.119 696.798C230.328 696.775 230.422 696.663 230.401 696.46C236.051 696.481 238.882 696.547 238.893 696.657C245.637 696.347 249.025 696.344 249.056 696.648L248.307 702.836C248.767 710.828 248.621 714.865 247.868 714.945L243.76 715.384C241.756 715.598 237.645 715.571 231.428 715.303L230.816 715.369C230.49 715.236 230.32 715.096 230.305 714.948C229.992 711.925 229.904 710.057 230.042 709.344C230.429 703.161 230.547 699.333 230.394 697.859L230.119 696.798ZM253.119 696.798C253.328 696.775 253.422 696.663 253.401 696.46C259.051 696.481 261.882 696.547 261.893 696.657C268.637 696.347 272.025 696.344 272.056 696.648L271.307 702.836C271.767 710.828 271.621 714.865 270.868 714.945L266.76 715.384C264.756 715.598 260.645 715.571 254.428 715.303L253.816 715.369C253.49 715.236 253.32 715.096 253.305 714.948C252.992 711.925 252.904 710.057 253.042 709.344C253.429 703.161 253.547 699.333 253.394 697.859L253.119 696.798ZM230.401 719.46C230.422 719.663 230.328 719.775 230.119 719.798L230.394 720.859C230.547 722.333 230.429 726.161 230.042 732.344C229.904 733.057 229.992 734.925 230.305 737.948C230.32 738.096 230.49 738.236 230.816 738.369L231.428 738.303C237.645 738.571 241.756 738.598 243.76 738.384L247.868 737.945C248.621 737.865 248.767 733.828 248.307 725.836L249.056 719.648C249.025 719.344 245.637 719.347 238.893 719.657C238.882 719.547 236.051 719.481 230.401 719.46ZM253.298 738.381C253.275 738.172 253.163 738.078 252.96 738.099C252.981 732.449 253.047 729.618 253.157 729.607C252.847 722.863 252.844 719.475 253.148 719.444L259.336 720.193C267.328 719.733 271.365 719.879 271.445 720.632L271.884 724.74C272.098 726.744 272.071 730.855 271.803 737.072L271.869 737.684C271.736 738.01 271.596 738.18 271.448 738.195C268.425 738.508 266.557 738.596 265.844 738.458C259.661 738.071 255.833 737.953 254.359 738.106L253.298 738.381ZM272.04 742.901C271.837 742.922 271.725 742.828 271.702 742.619L270.641 742.894C269.167 743.047 265.339 742.929 259.156 742.542C258.443 742.404 256.575 742.492 253.552 742.805C253.404 742.82 253.264 742.99 253.131 743.316L253.197 743.928C252.929 750.145 252.902 754.256 253.116 756.26L253.555 760.368C253.635 761.121 257.672 761.267 265.664 760.807L271.852 761.556C272.156 761.525 272.153 758.137 271.843 751.393C271.953 751.382 272.019 748.551 272.04 742.901ZM248.881 761.202C248.672 761.225 248.578 761.337 248.599 761.54C242.949 761.519 240.118 761.453 240.107 761.343C233.363 761.653 229.975 761.656 229.944 761.352L230.693 755.164C230.233 747.172 230.379 743.135 231.132 743.055L235.24 742.616C237.244 742.402 241.355 742.429 247.572 742.697L248.184 742.631C248.51 742.764 248.68 742.904 248.695 743.052C249.008 746.075 249.096 747.943 248.958 748.656C248.571 754.839 248.453 758.667 248.606 760.141L248.881 761.202Z" fill="black"/>
</g>
<g style="mix-blend-mode:overlay">
<path fill-rule="evenodd" clip-rule="evenodd" d="M223 849H226.5H275.5H279L275.5 852.5V919.5L279 923H275.5H226.5H223L226.5 919.5V852.5L223 849ZM230.119 853.798C230.328 853.775 230.422 853.663 230.401 853.46C236.051 853.481 238.882 853.547 238.893 853.657C245.637 853.347 249.025 853.344 249.056 853.648L248.307 859.836C248.767 867.828 248.621 871.865 247.868 871.945L243.76 872.384C241.756 872.598 237.645 872.571 231.428 872.303L230.816 872.369C230.49 872.236 230.32 872.096 230.305 871.948C229.992 868.925 229.904 867.057 230.042 866.344C230.429 860.161 230.547 856.333 230.394 854.859L230.119 853.798ZM253.119 853.798C253.328 853.775 253.422 853.663 253.401 853.46C259.051 853.481 261.882 853.547 261.893 853.657C268.637 853.347 272.025 853.344 272.056 853.648L271.307 859.836C271.767 867.828 271.621 871.865 270.868 871.945L266.76 872.384C264.756 872.598 260.645 872.571 254.428 872.303L253.816 872.369C253.49 872.236 253.32 872.096 253.305 871.948C252.992 868.925 252.904 867.057 253.042 866.344C253.429 860.161 253.547 856.333 253.394 854.859L253.119 853.798ZM230.401 876.46C230.422 876.663 230.328 876.775 230.119 876.798L230.394 877.859C230.547 879.333 230.429 883.161 230.042 889.344C229.904 890.057 229.992 891.925 230.305 894.948C230.32 895.096 230.49 895.236 230.816 895.369L231.428 895.303C237.645 895.571 241.756 895.598 243.76 895.384L247.868 894.945C248.621 894.865 248.767 890.828 248.307 882.836L249.056 876.648C249.025 876.344 245.637 876.347 238.893 876.657C238.882 876.547 236.051 876.481 230.401 876.46ZM253.298 895.381C253.275 895.172 253.163 895.078 252.96 895.099C252.981 889.449 253.047 886.618 253.157 886.607C252.847 879.863 252.844 876.475 253.148 876.444L259.336 877.193C267.328 876.733 271.365 876.879 271.445 877.632L271.884 881.74C272.098 883.744 272.071 887.855 271.803 894.072L271.869 894.684C271.736 895.01 271.596 895.18 271.448 895.195C268.425 895.508 266.557 895.596 265.844 895.458C259.661 895.071 255.833 894.953 254.359 895.106L253.298 895.381ZM272.04 899.901C271.837 899.922 271.725 899.828 271.702 899.619L270.641 899.894C269.167 900.047 265.339 899.929 259.156 899.542C258.443 899.404 256.575 899.492 253.552 899.805C253.404 899.82 253.264 899.99 253.131 900.316L253.197 900.928C252.929 907.145 252.902 911.256 253.116 913.26L253.555 917.368C253.635 918.121 257.672 918.267 265.664 917.807L271.852 918.556C272.156 918.525 272.153 915.137 271.843 908.393C271.953 908.382 272.019 905.551 272.04 899.901ZM248.881 918.202C248.672 918.225 248.578 918.337 248.599 918.54C242.949 918.519 240.118 918.453 240.107 918.343C233.363 918.653 229.975 918.656 229.944 918.352L230.693 912.164C230.233 904.172 230.379 900.135 231.132 900.055L235.24 899.616C237.244 899.402 241.355 899.429 247.572 899.697L248.184 899.631C248.51 899.764 248.68 899.904 248.695 900.052C249.008 903.075 249.096 904.943 248.958 905.656C248.571 911.839 248.453 915.667 248.606 917.141L248.881 918.202Z" fill="black"/>
</g>
<path d="M345.5 607.5H1025L1023.5 897.5H345.5V607.5Z" fill="#D9D9D9" stroke="black"/>
<path d="M657.472 603L1027.42 604.942C1029.14 606.694 1030 609.475 1030 613.283C1028.91 613.283 1027.81 850.602 1026.72 896.23C1026.72 897.944 1025.62 899.448 1023.44 900.743H1019.51C1015.56 900.743 1010.85 901.162 667.317 902C663.098 902 388.168 900.515 362.617 897.544L340.993 900.743L339 898.172V895.601C339 892.364 340.094 661.425 342.282 631.794V607.456C343.298 605.361 347.244 604.314 354.12 604.314H368.536C372.209 604.314 641.883 603.876 657.472 603ZM368.536 610.655C361.973 610.275 357.167 610.084 354.12 610.084C352.088 610.084 350.115 610.732 348.201 612.027C348.201 612.484 348.416 613.112 348.845 613.912C348.845 627.433 347.537 863.475 344.919 893.031L346.208 893.716C354.686 892.421 359.726 891.774 361.328 891.774L662.688 895.601C1014.15 895.601 1020.86 894.535 1020.86 892.402V880.233C1020.86 869.264 1021.72 636.859 1023.44 612.027C1023.44 610.884 1012.83 609.798 653.546 608.77C646.513 609.646 378.147 610.275 368.536 610.655Z" fill="black"/>
<g style="mix-blend-mode:overlay">
<path fill-rule="evenodd" clip-rule="evenodd" d="M401 692H404.5H453.5H457L453.5 695.5V762.5L457 766H453.5H404.5H401L404.5 762.5V695.5L401 692ZM408.119 696.798C408.328 696.775 408.422 696.663 408.401 696.46C414.051 696.481 416.882 696.547 416.893 696.657C423.637 696.347 427.025 696.344 427.056 696.648L426.307 702.836C426.767 710.828 426.621 714.865 425.868 714.945L421.76 715.384C419.756 715.598 415.645 715.571 409.428 715.303L408.816 715.369C408.49 715.236 408.32 715.096 408.305 714.948C407.992 711.925 407.904 710.057 408.042 709.344C408.429 703.161 408.547 699.333 408.394 697.859L408.119 696.798ZM431.119 696.798C431.328 696.775 431.422 696.663 431.401 696.46C437.051 696.481 439.882 696.547 439.893 696.657C446.637 696.347 450.025 696.344 450.056 696.648L449.307 702.836C449.767 710.828 449.621 714.865 448.868 714.945L444.76 715.384C442.756 715.598 438.645 715.571 432.428 715.303L431.816 715.369C431.49 715.236 431.32 715.096 431.305 714.948C430.992 711.925 430.904 710.057 431.042 709.344C431.429 703.161 431.547 699.333 431.394 697.859L431.119 696.798ZM408.401 719.46C408.422 719.663 408.328 719.775 408.119 719.798L408.394 720.859C408.547 722.333 408.429 726.161 408.042 732.344C407.904 733.057 407.992 734.925 408.305 737.948C408.32 738.096 408.49 738.236 408.816 738.369L409.428 738.303C415.645 738.571 419.756 738.598 421.76 738.384L425.868 737.945C426.621 737.865 426.767 733.828 426.307 725.836L427.056 719.648C427.025 719.344 423.637 719.347 416.893 719.657C416.882 719.547 414.051 719.481 408.401 719.46ZM431.298 738.381C431.275 738.172 431.163 738.078 430.96 738.099C430.981 732.449 431.047 729.618 431.157 729.607C430.847 722.863 430.844 719.475 431.148 719.444L437.336 720.193C445.328 719.733 449.365 719.879 449.445 720.632L449.884 724.74C450.098 726.744 450.071 730.855 449.803 737.072L449.869 737.684C449.736 738.01 449.596 738.18 449.448 738.195C446.425 738.508 444.557 738.596 443.844 738.458C437.661 738.071 433.833 737.953 432.359 738.106L431.298 738.381ZM450.04 742.901C449.837 742.922 449.725 742.828 449.702 742.619L448.641 742.894C447.167 743.047 443.339 742.929 437.156 742.542C436.443 742.404 434.575 742.492 431.552 742.805C431.404 742.82 431.264 742.99 431.131 743.316L431.197 743.928C430.929 750.145 430.902 754.256 431.116 756.26L431.555 760.368C431.635 761.121 435.672 761.267 443.664 760.807L449.852 761.556C450.156 761.525 450.153 758.137 449.843 751.393C449.953 751.382 450.019 748.551 450.04 742.901ZM426.881 761.202C426.672 761.225 426.578 761.337 426.599 761.54C420.949 761.519 418.118 761.453 418.107 761.343C411.363 761.653 407.975 761.656 407.944 761.352L408.693 755.164C408.233 747.172 408.379 743.135 409.132 743.055L413.24 742.616C415.244 742.402 419.355 742.429 425.572 742.697L426.184 742.631C426.51 742.764 426.68 742.904 426.695 743.052C427.008 746.075 427.096 747.943 426.958 748.656C426.571 754.839 426.453 758.667 426.606 760.141L426.881 761.202Z" fill="black"/>
</g>
<g style="mix-blend-mode:overlay">
<path fill-rule="evenodd" clip-rule="evenodd" d="M401 849H404.5H453.5H457L453.5 852.5V919.5L457 923H453.5H404.5H401L404.5 919.5V852.5L401 849ZM408.119 853.798C408.328 853.775 408.422 853.663 408.401 853.46C414.051 853.481 416.882 853.547 416.893 853.657C423.637 853.347 427.025 853.344 427.056 853.648L426.307 859.836C426.767 867.828 426.621 871.865 425.868 871.945L421.76 872.384C419.756 872.598 415.645 872.571 409.428 872.303L408.816 872.369C408.49 872.236 408.32 872.096 408.305 871.948C407.992 868.925 407.904 867.057 408.042 866.344C408.429 860.161 408.547 856.333 408.394 854.859L408.119 853.798ZM431.119 853.798C431.328 853.775 431.422 853.663 431.401 853.46C437.051 853.481 439.882 853.547 439.893 853.657C446.637 853.347 450.025 853.344 450.056 853.648L449.307 859.836C449.767 867.828 449.621 871.865 448.868 871.945L444.76 872.384C442.756 872.598 438.645 872.571 432.428 872.303L431.816 872.369C431.49 872.236 431.32 872.096 431.305 871.948C430.992 868.925 430.904 867.057 431.042 866.344C431.429 860.161 431.547 856.333 431.394 854.859L431.119 853.798ZM408.401 876.46C408.422 876.663 408.328 876.775 408.119 876.798L408.394 877.859C408.547 879.333 408.429 883.161 408.042 889.344C407.904 890.057 407.992 891.925 408.305 894.948C408.32 895.096 408.49 895.236 408.816 895.369L409.428 895.303C415.645 895.571 419.756 895.598 421.76 895.384L425.868 894.945C426.621 894.865 426.767 890.828 426.307 882.836L427.056 876.648C427.025 876.344 423.637 876.347 416.893 876.657C416.882 876.547 414.051 876.481 408.401 876.46ZM431.298 895.381C431.275 895.172 431.163 895.078 430.96 895.099C430.981 889.449 431.047 886.618 431.157 886.607C430.847 879.863 430.844 876.475 431.148 876.444L437.336 877.193C445.328 876.733 449.365 876.879 449.445 877.632L449.884 881.74C450.098 883.744 450.071 887.855 449.803 894.072L449.869 894.684C449.736 895.01 449.596 895.18 449.448 895.195C446.425 895.508 444.557 895.596 443.844 895.458C437.661 895.071 433.833 894.953 432.359 895.106L431.298 895.381ZM450.04 899.901C449.837 899.922 449.725 899.828 449.702 899.619L448.641 899.894C447.167 900.047 443.339 899.929 437.156 899.542C436.443 899.404 434.575 899.492 431.552 899.805C431.404 899.82 431.264 899.99 431.131 900.316L431.197 900.928C430.929 907.145 430.902 911.256 431.116 913.26L431.555 917.368C431.635 918.121 435.672 918.267 443.664 917.807L449.852 918.556C450.156 918.525 450.153 915.137 449.843 908.393C449.953 908.382 450.019 905.551 450.04 899.901ZM426.881 918.202C426.672 918.225 426.578 918.337 426.599 918.54C420.949 918.519 418.118 918.453 418.107 918.343C411.363 918.653 407.975 918.656 407.944 918.352L408.693 912.164C408.233 904.172 408.379 900.135 409.132 900.055L413.24 899.616C415.244 899.402 419.355 899.429 425.572 899.697L426.184 899.631C426.51 899.764 426.68 899.904 426.695 900.052C427.008 903.075 427.096 904.943 426.958 905.656C426.571 911.839 426.453 915.667 426.606 917.141L426.881 918.202Z" fill="black"/>
</g>
<g style="mix-blend-mode:overlay">
<path fill-rule="evenodd" clip-rule="evenodd" d="M527 692H530.5H579.5H583L579.5 695.5V762.5L583 766H579.5H530.5H527L530.5 762.5V695.5L527 692ZM534.119 696.798C534.328 696.775 534.422 696.663 534.401 696.46C540.051 696.481 542.882 696.547 542.893 696.657C549.637 696.347 553.025 696.344 553.056 696.648L552.307 702.836C552.767 710.828 552.621 714.865 551.868 714.945L547.76 715.384C545.756 715.598 541.645 715.571 535.428 715.303L534.816 715.369C534.49 715.236 534.32 715.096 534.305 714.948C533.992 711.925 533.904 710.057 534.042 709.344C534.429 703.161 534.547 699.333 534.394 697.859L534.119 696.798ZM557.119 696.798C557.328 696.775 557.422 696.663 557.401 696.46C563.051 696.481 565.882 696.547 565.893 696.657C572.637 696.347 576.025 696.344 576.056 696.648L575.307 702.836C575.767 710.828 575.621 714.865 574.868 714.945L570.76 715.384C568.756 715.598 564.645 715.571 558.428 715.303L557.816 715.369C557.49 715.236 557.32 715.096 557.305 714.948C556.992 711.925 556.904 710.057 557.042 709.344C557.429 703.161 557.547 699.333 557.394 697.859L557.119 696.798ZM534.401 719.46C534.422 719.663 534.328 719.775 534.119 719.798L534.394 720.859C534.547 722.333 534.429 726.161 534.042 732.344C533.904 733.057 533.992 734.925 534.305 737.948C534.32 738.096 534.49 738.236 534.816 738.369L535.428 738.303C541.645 738.571 545.756 738.598 547.76 738.384L551.868 737.945C552.621 737.865 552.767 733.828 552.307 725.836L553.056 719.648C553.025 719.344 549.637 719.347 542.893 719.657C542.882 719.547 540.051 719.481 534.401 719.46ZM557.298 738.381C557.275 738.172 557.163 738.078 556.96 738.099C556.981 732.449 557.047 729.618 557.157 729.607C556.847 722.863 556.844 719.475 557.148 719.444L563.336 720.193C571.328 719.733 575.365 719.879 575.445 720.632L575.884 724.74C576.098 726.744 576.071 730.855 575.803 737.072L575.869 737.684C575.736 738.01 575.596 738.18 575.448 738.195C572.425 738.508 570.557 738.596 569.844 738.458C563.661 738.071 559.833 737.953 558.359 738.106L557.298 738.381ZM576.04 742.901C575.837 742.922 575.725 742.828 575.702 742.619L574.641 742.894C573.167 743.047 569.339 742.929 563.156 742.542C562.443 742.404 560.575 742.492 557.552 742.805C557.404 742.82 557.264 742.99 557.131 743.316L557.197 743.928C556.929 750.145 556.902 754.256 557.116 756.26L557.555 760.368C557.635 761.121 561.672 761.267 569.664 760.807L575.852 761.556C576.156 761.525 576.153 758.137 575.843 751.393C575.953 751.382 576.019 748.551 576.04 742.901ZM552.881 761.202C552.672 761.225 552.578 761.337 552.599 761.54C546.949 761.519 544.118 761.453 544.107 761.343C537.363 761.653 533.975 761.656 533.944 761.352L534.693 755.164C534.233 747.172 534.379 743.135 535.132 743.055L539.24 742.616C541.244 742.402 545.355 742.429 551.572 742.697L552.184 742.631C552.51 742.764 552.68 742.904 552.695 743.052C553.008 746.075 553.096 747.943 552.958 748.656C552.571 754.839 552.453 758.667 552.606 760.141L552.881 761.202Z" fill="black"/>
</g>
<g style="mix-blend-mode:overlay">
<path fill-rule="evenodd" clip-rule="evenodd" d="M527 849H530.5H579.5H583L579.5 852.5V919.5L583 923H579.5H530.5H527L530.5 919.5V852.5L527 849ZM534.119 853.798C534.328 853.775 534.422 853.663 534.401 853.46C540.051 853.481 542.882 853.547 542.893 853.657C549.637 853.347 553.025 853.344 553.056 853.648L552.307 859.836C552.767 867.828 552.621 871.865 551.868 871.945L547.76 872.384C545.756 872.598 541.645 872.571 535.428 872.303L534.816 872.369C534.49 872.236 534.32 872.096 534.305 871.948C533.992 868.925 533.904 867.057 534.042 866.344C534.429 860.161 534.547 856.333 534.394 854.859L534.119 853.798ZM557.119 853.798C557.328 853.775 557.422 853.663 557.401 853.46C563.051 853.481 565.882 853.547 565.893 853.657C572.637 853.347 576.025 853.344 576.056 853.648L575.307 859.836C575.767 867.828 575.621 871.865 574.868 871.945L570.76 872.384C568.756 872.598 564.645 872.571 558.428 872.303L557.816 872.369C557.49 872.236 557.32 872.096 557.305 871.948C556.992 868.925 556.904 867.057 557.042 866.344C557.429 860.161 557.547 856.333 557.394 854.859L557.119 853.798ZM534.401 876.46C534.422 876.663 534.328 876.775 534.119 876.798L534.394 877.859C534.547 879.333 534.429 883.161 534.042 889.344C533.904 890.057 533.992 891.925 534.305 894.948C534.32 895.096 534.49 895.236 534.816 895.369L535.428 895.303C541.645 895.571 545.756 895.598 547.76 895.384L551.868 894.945C552.621 894.865 552.767 890.828 552.307 882.836L553.056 876.648C553.025 876.344 549.637 876.347 542.893 876.657C542.882 876.547 540.051 876.481 534.401 876.46ZM557.298 895.381C557.275 895.172 557.163 895.078 556.96 895.099C556.981 889.449 557.047 886.618 557.157 886.607C556.847 879.863 556.844 876.475 557.148 876.444L563.336 877.193C571.328 876.733 575.365 876.879 575.445 877.632L575.884 881.74C576.098 883.744 576.071 887.855 575.803 894.072L575.869 894.684C575.736 895.01 575.596 895.18 575.448 895.195C572.425 895.508 570.557 895.596 569.844 895.458C563.661 895.071 559.833 894.953 558.359 895.106L557.298 895.381ZM576.04 899.901C575.837 899.922 575.725 899.828 575.702 899.619L574.641 899.894C573.167 900.047 569.339 899.929 563.156 899.542C562.443 899.404 560.575 899.492 557.552 899.805C557.404 899.82 557.264 899.99 557.131 900.316L557.197 900.928C556.929 907.145 556.902 911.256 557.116 913.26L557.555 917.368C557.635 918.121 561.672 918.267 569.664 917.807L575.852 918.556C576.156 918.525 576.153 915.137 575.843 908.393C575.953 908.382 576.019 905.551 576.04 899.901ZM552.881 918.202C552.672 918.225 552.578 918.337 552.599 918.54C546.949 918.519 544.118 918.453 544.107 918.343C537.363 918.653 533.975 918.656 533.944 918.352L534.693 912.164C534.233 904.172 534.379 900.135 535.132 900.055L539.24 899.616C541.244 899.402 545.355 899.429 551.572 899.697L552.184 899.631C552.51 899.764 552.68 899.904 552.695 900.052C553.008 903.075 553.096 904.943 552.958 905.656C552.571 911.839 552.453 915.667 552.606 917.141L552.881 918.202Z" fill="black"/>
</g>
<g style="mix-blend-mode:overlay">
<path fill-rule="evenodd" clip-rule="evenodd" d="M653 692H656.5H705.5H709L705.5 695.5V762.5L709 766H705.5H656.5H653L656.5 762.5V695.5L653 692ZM660.119 696.798C660.328 696.775 660.422 696.663 660.401 696.46C666.051 696.481 668.882 696.547 668.893 696.657C675.637 696.347 679.025 696.344 679.056 696.648L678.307 702.836C678.767 710.828 678.621 714.865 677.868 714.945L673.76 715.384C671.756 715.598 667.645 715.571 661.428 715.303L660.816 715.369C660.49 715.236 660.32 715.096 660.305 714.948C659.992 711.925 659.904 710.057 660.042 709.344C660.429 703.161 660.547 699.333 660.394 697.859L660.119 696.798ZM683.119 696.798C683.328 696.775 683.422 696.663 683.401 696.46C689.051 696.481 691.882 696.547 691.893 696.657C698.637 696.347 702.025 696.344 702.056 696.648L701.307 702.836C701.767 710.828 701.621 714.865 700.868 714.945L696.76 715.384C694.756 715.598 690.645 715.571 684.428 715.303L683.816 715.369C683.49 715.236 683.32 715.096 683.305 714.948C682.992 711.925 682.904 710.057 683.042 709.344C683.429 703.161 683.547 699.333 683.394 697.859L683.119 696.798ZM660.401 719.46C660.422 719.663 660.328 719.775 660.119 719.798L660.394 720.859C660.547 722.333 660.429 726.161 660.042 732.344C659.904 733.057 659.992 734.925 660.305 737.948C660.32 738.096 660.49 738.236 660.816 738.369L661.428 738.303C667.645 738.571 671.756 738.598 673.76 738.384L677.868 737.945C678.621 737.865 678.767 733.828 678.307 725.836L679.056 719.648C679.025 719.344 675.637 719.347 668.893 719.657C668.882 719.547 666.051 719.481 660.401 719.46ZM683.298 738.381C683.275 738.172 683.163 738.078 682.96 738.099C682.981 732.449 683.047 729.618 683.157 729.607C682.847 722.863 682.844 719.475 683.148 719.444L689.336 720.193C697.328 719.733 701.365 719.879 701.445 720.632L701.884 724.74C702.098 726.744 702.071 730.855 701.803 737.072L701.869 737.684C701.736 738.01 701.596 738.18 701.448 738.195C698.425 738.508 696.557 738.596 695.844 738.458C689.661 738.071 685.833 737.953 684.359 738.106L683.298 738.381ZM702.04 742.901C701.837 742.922 701.725 742.828 701.702 742.619L700.641 742.894C699.167 743.047 695.339 742.929 689.156 742.542C688.443 742.404 686.575 742.492 683.552 742.805C683.404 742.82 683.264 742.99 683.131 743.316L683.197 743.928C682.929 750.145 682.902 754.256 683.116 756.26L683.555 760.368C683.635 761.121 687.672 761.267 695.664 760.807L701.852 761.556C702.156 761.525 702.153 758.137 701.843 751.393C701.953 751.382 702.019 748.551 702.04 742.901ZM678.881 761.202C678.672 761.225 678.578 761.337 678.599 761.54C672.949 761.519 670.118 761.453 670.107 761.343C663.363 761.653 659.975 761.656 659.944 761.352L660.693 755.164C660.233 747.172 660.379 743.135 661.132 743.055L665.24 742.616C667.244 742.402 671.355 742.429 677.572 742.697L678.184 742.631C678.51 742.764 678.68 742.904 678.695 743.052C679.008 746.075 679.096 747.943 678.958 748.656C678.571 754.839 678.453 758.667 678.606 760.141L678.881 761.202Z" fill="black"/>
</g>
<g style="mix-blend-mode:overlay">
<path fill-rule="evenodd" clip-rule="evenodd" d="M653 849H656.5H705.5H709L705.5 852.5V919.5L709 923H705.5H656.5H653L656.5 919.5V852.5L653 849ZM660.119 853.798C660.328 853.775 660.422 853.663 660.401 853.46C666.051 853.481 668.882 853.547 668.893 853.657C675.637 853.347 679.025 853.344 679.056 853.648L678.307 859.836C678.767 867.828 678.621 871.865 677.868 871.945L673.76 872.384C671.756 872.598 667.645 872.571 661.428 872.303L660.816 872.369C660.49 872.236 660.32 872.096 660.305 871.948C659.992 868.925 659.904 867.057 660.042 866.344C660.429 860.161 660.547 856.333 660.394 854.859L660.119 853.798ZM683.119 853.798C683.328 853.775 683.422 853.663 683.401 853.46C689.051 853.481 691.882 853.547 691.893 853.657C698.637 853.347 702.025 853.344 702.056 853.648L701.307 859.836C701.767 867.828 701.621 871.865 700.868 871.945L696.76 872.384C694.756 872.598 690.645 872.571 684.428 872.303L683.816 872.369C683.49 872.236 683.32 872.096 683.305 871.948C682.992 868.925 682.904 867.057 683.042 866.344C683.429 860.161 683.547 856.333 683.394 854.859L683.119 853.798ZM660.401 876.46C660.422 876.663 660.328 876.775 660.119 876.798L660.394 877.859C660.547 879.333 660.429 883.161 660.042 889.344C659.904 890.057 659.992 891.925 660.305 894.948C660.32 895.096 660.49 895.236 660.816 895.369L661.428 895.303C667.645 895.571 671.756 895.598 673.76 895.384L677.868 894.945C678.621 894.865 678.767 890.828 678.307 882.836L679.056 876.648C679.025 876.344 675.637 876.347 668.893 876.657C668.882 876.547 666.051 876.481 660.401 876.46ZM683.298 895.381C683.275 895.172 683.163 895.078 682.96 895.099C682.981 889.449 683.047 886.618 683.157 886.607C682.847 879.863 682.844 876.475 683.148 876.444L689.336 877.193C697.328 876.733 701.365 876.879 701.445 877.632L701.884 881.74C702.098 883.744 702.071 887.855 701.803 894.072L701.869 894.684C701.736 895.01 701.596 895.18 701.448 895.195C698.425 895.508 696.557 895.596 695.844 895.458C689.661 895.071 685.833 894.953 684.359 895.106L683.298 895.381ZM702.04 899.901C701.837 899.922 701.725 899.828 701.702 899.619L700.641 899.894C699.167 900.047 695.339 899.929 689.156 899.542C688.443 899.404 686.575 899.492 683.552 899.805C683.404 899.82 683.264 899.99 683.131 900.316L683.197 900.928C682.929 907.145 682.902 911.256 683.116 913.26L683.555 917.368C683.635 918.121 687.672 918.267 695.664 917.807L701.852 918.556C702.156 918.525 702.153 915.137 701.843 908.393C701.953 908.382 702.019 905.551 702.04 899.901ZM678.881 918.202C678.672 918.225 678.578 918.337 678.599 918.54C672.949 918.519 670.118 918.453 670.107 918.343C663.363 918.653 659.975 918.656 659.944 918.352L660.693 912.164C660.233 904.172 660.379 900.135 661.132 900.055L665.24 899.616C667.244 899.402 671.355 899.429 677.572 899.697L678.184 899.631C678.51 899.764 678.68 899.904 678.695 900.052C679.008 903.075 679.096 904.943 678.958 905.656C678.571 911.839 678.453 915.667 678.606 917.141L678.881 918.202Z" fill="black"/>
</g>
<g style="mix-blend-mode:overlay">
<path fill-rule="evenodd" clip-rule="evenodd" d="M779 692H782.5H831.5H835L831.5 695.5V762.5L835 766H831.5H782.5H779L782.5 762.5V695.5L779 692ZM786.119 696.798C786.328 696.775 786.422 696.663 786.401 696.46C792.051 696.481 794.882 696.547 794.893 696.657C801.637 696.347 805.025 696.344 805.056 696.648L804.307 702.836C804.767 710.828 804.621 714.865 803.868 714.945L799.76 715.384C797.756 715.598 793.645 715.571 787.428 715.303L786.816 715.369C786.49 715.236 786.32 715.096 786.305 714.948C785.992 711.925 785.904 710.057 786.042 709.344C786.429 703.161 786.547 699.333 786.394 697.859L786.119 696.798ZM809.119 696.798C809.328 696.775 809.422 696.663 809.401 696.46C815.051 696.481 817.882 696.547 817.893 696.657C824.637 696.347 828.025 696.344 828.056 696.648L827.307 702.836C827.767 710.828 827.621 714.865 826.868 714.945L822.76 715.384C820.756 715.598 816.645 715.571 810.428 715.303L809.816 715.369C809.49 715.236 809.32 715.096 809.305 714.948C808.992 711.925 808.904 710.057 809.042 709.344C809.429 703.161 809.547 699.333 809.394 697.859L809.119 696.798ZM786.401 719.46C786.422 719.663 786.328 719.775 786.119 719.798L786.394 720.859C786.547 722.333 786.429 726.161 786.042 732.344C785.904 733.057 785.992 734.925 786.305 737.948C786.32 738.096 786.49 738.236 786.816 738.369L787.428 738.303C793.645 738.571 797.756 738.598 799.76 738.384L803.868 737.945C804.621 737.865 804.767 733.828 804.307 725.836L805.056 719.648C805.025 719.344 801.637 719.347 794.893 719.657C794.882 719.547 792.051 719.481 786.401 719.46ZM809.298 738.381C809.275 738.172 809.163 738.078 808.96 738.099C808.981 732.449 809.047 729.618 809.157 729.607C808.847 722.863 808.844 719.475 809.148 719.444L815.336 720.193C823.328 719.733 827.365 719.879 827.445 720.632L827.884 724.74C828.098 726.744 828.071 730.855 827.803 737.072L827.869 737.684C827.736 738.01 827.596 738.18 827.448 738.195C824.425 738.508 822.557 738.596 821.844 738.458C815.661 738.071 811.833 737.953 810.359 738.106L809.298 738.381ZM828.04 742.901C827.837 742.922 827.725 742.828 827.702 742.619L826.641 742.894C825.167 743.047 821.339 742.929 815.156 742.542C814.443 742.404 812.575 742.492 809.552 742.805C809.404 742.82 809.264 742.99 809.131 743.316L809.197 743.928C808.929 750.145 808.902 754.256 809.116 756.26L809.555 760.368C809.635 761.121 813.672 761.267 821.664 760.807L827.852 761.556C828.156 761.525 828.153 758.137 827.843 751.393C827.953 751.382 828.019 748.551 828.04 742.901ZM804.881 761.202C804.672 761.225 804.578 761.337 804.599 761.54C798.949 761.519 796.118 761.453 796.107 761.343C789.363 761.653 785.975 761.656 785.944 761.352L786.693 755.164C786.233 747.172 786.379 743.135 787.132 743.055L791.24 742.616C793.244 742.402 797.355 742.429 803.572 742.697L804.184 742.631C804.51 742.764 804.68 742.904 804.695 743.052C805.008 746.075 805.096 747.943 804.958 748.656C804.571 754.839 804.453 758.667 804.606 760.141L804.881 761.202Z" fill="black"/>
</g>
<g style="mix-blend-mode:overlay">
<path fill-rule="evenodd" clip-rule="evenodd" d="M779 849H782.5H831.5H835L831.5 852.5V919.5L835 923H831.5H782.5H779L782.5 919.5V852.5L779 849ZM786.119 853.798C786.328 853.775 786.422 853.663 786.401 853.46C792.051 853.481 794.882 853.547 794.893 853.657C801.637 853.347 805.025 853.344 805.056 853.648L804.307 859.836C804.767 867.828 804.621 871.865 803.868 871.945L799.76 872.384C797.756 872.598 793.645 872.571 787.428 872.303L786.816 872.369C786.49 872.236 786.32 872.096 786.305 871.948C785.992 868.925 785.904 867.057 786.042 866.344C786.429 860.161 786.547 856.333 786.394 854.859L786.119 853.798ZM809.119 853.798C809.328 853.775 809.422 853.663 809.401 853.46C815.051 853.481 817.882 853.547 817.893 853.657C824.637 853.347 828.025 853.344 828.056 853.648L827.307 859.836C827.767 867.828 827.621 871.865 826.868 871.945L822.76 872.384C820.756 872.598 816.645 872.571 810.428 872.303L809.816 872.369C809.49 872.236 809.32 872.096 809.305 871.948C808.992 868.925 808.904 867.057 809.042 866.344C809.429 860.161 809.547 856.333 809.394 854.859L809.119 853.798ZM786.401 876.46C786.422 876.663 786.328 876.775 786.119 876.798L786.394 877.859C786.547 879.333 786.429 883.161 786.042 889.344C785.904 890.057 785.992 891.925 786.305 894.948C786.32 895.096 786.49 895.236 786.816 895.369L787.428 895.303C793.645 895.571 797.756 895.598 799.76 895.384L803.868 894.945C804.621 894.865 804.767 890.828 804.307 882.836L805.056 876.648C805.025 876.344 801.637 876.347 794.893 876.657C794.882 876.547 792.051 876.481 786.401 876.46ZM809.298 895.381C809.275 895.172 809.163 895.078 808.96 895.099C808.981 889.449 809.047 886.618 809.157 886.607C808.847 879.863 808.844 876.475 809.148 876.444L815.336 877.193C823.328 876.733 827.365 876.879 827.445 877.632L827.884 881.74C828.098 883.744 828.071 887.855 827.803 894.072L827.869 894.684C827.736 895.01 827.596 895.18 827.448 895.195C824.425 895.508 822.557 895.596 821.844 895.458C815.661 895.071 811.833 894.953 810.359 895.106L809.298 895.381ZM828.04 899.901C827.837 899.922 827.725 899.828 827.702 899.619L826.641 899.894C825.167 900.047 821.339 899.929 815.156 899.542C814.443 899.404 812.575 899.492 809.552 899.805C809.404 899.82 809.264 899.99 809.131 900.316L809.197 900.928C808.929 907.145 808.902 911.256 809.116 913.26L809.555 917.368C809.635 918.121 813.672 918.267 821.664 917.807L827.852 918.556C828.156 918.525 828.153 915.137 827.843 908.393C827.953 908.382 828.019 905.551 828.04 899.901ZM804.881 918.202C804.672 918.225 804.578 918.337 804.599 918.54C798.949 918.519 796.118 918.453 796.107 918.343C789.363 918.653 785.975 918.656 785.944 918.352L786.693 912.164C786.233 904.172 786.379 900.135 787.132 900.055L791.24 899.616C793.244 899.402 797.355 899.429 803.572 899.697L804.184 899.631C804.51 899.764 804.68 899.904 804.695 900.052C805.008 903.075 805.096 904.943 804.958 905.656C804.571 911.839 804.453 915.667 804.606 917.141L804.881 918.202Z" fill="black"/>
</g>
<g style="mix-blend-mode:overlay">
<path fill-rule="evenodd" clip-rule="evenodd" d="M905 692H908.5H957.5H961L957.5 695.5V762.5L961 766H957.5H908.5H905L908.5 762.5V695.5L905 692ZM912.119 696.798C912.328 696.775 912.422 696.663 912.401 696.46C918.051 696.481 920.882 696.547 920.893 696.657C927.637 696.347 931.025 696.344 931.056 696.648L930.307 702.836C930.767 710.828 930.621 714.865 929.868 714.945L925.76 715.384C923.756 715.598 919.645 715.571 913.428 715.303L912.816 715.369C912.49 715.236 912.32 715.096 912.305 714.948C911.992 711.925 911.904 710.057 912.042 709.344C912.429 703.161 912.547 699.333 912.394 697.859L912.119 696.798ZM935.119 696.798C935.328 696.775 935.422 696.663 935.401 696.46C941.051 696.481 943.882 696.547 943.893 696.657C950.637 696.347 954.025 696.344 954.056 696.648L953.307 702.836C953.767 710.828 953.621 714.865 952.868 714.945L948.76 715.384C946.756 715.598 942.645 715.571 936.428 715.303L935.816 715.369C935.49 715.236 935.32 715.096 935.305 714.948C934.992 711.925 934.904 710.057 935.042 709.344C935.429 703.161 935.547 699.333 935.394 697.859L935.119 696.798ZM912.401 719.46C912.422 719.663 912.328 719.775 912.119 719.798L912.394 720.859C912.547 722.333 912.429 726.161 912.042 732.344C911.904 733.057 911.992 734.925 912.305 737.948C912.32 738.096 912.49 738.236 912.816 738.369L913.428 738.303C919.645 738.571 923.756 738.598 925.76 738.384L929.868 737.945C930.621 737.865 930.767 733.828 930.307 725.836L931.056 719.648C931.025 719.344 927.637 719.347 920.893 719.657C920.882 719.547 918.051 719.481 912.401 719.46ZM935.298 738.381C935.275 738.172 935.163 738.078 934.96 738.099C934.981 732.449 935.047 729.618 935.157 729.607C934.847 722.863 934.844 719.475 935.148 719.444L941.336 720.193C949.328 719.733 953.365 719.879 953.445 720.632L953.884 724.74C954.098 726.744 954.071 730.855 953.803 737.072L953.869 737.684C953.736 738.01 953.596 738.18 953.448 738.195C950.425 738.508 948.557 738.596 947.844 738.458C941.661 738.071 937.833 737.953 936.359 738.106L935.298 738.381ZM954.04 742.901C953.837 742.922 953.725 742.828 953.702 742.619L952.641 742.894C951.167 743.047 947.339 742.929 941.156 742.542C940.443 742.404 938.575 742.492 935.552 742.805C935.404 742.82 935.264 742.99 935.131 743.316L935.197 743.928C934.929 750.145 934.902 754.256 935.116 756.26L935.555 760.368C935.635 761.121 939.672 761.267 947.664 760.807L953.852 761.556C954.156 761.525 954.153 758.137 953.843 751.393C953.953 751.382 954.019 748.551 954.04 742.901ZM930.881 761.202C930.672 761.225 930.578 761.337 930.599 761.54C924.949 761.519 922.118 761.453 922.107 761.343C915.363 761.653 911.975 761.656 911.944 761.352L912.693 755.164C912.233 747.172 912.379 743.135 913.132 743.055L917.24 742.616C919.244 742.402 923.355 742.429 929.572 742.697L930.184 742.631C930.51 742.764 930.68 742.904 930.695 743.052C931.008 746.075 931.096 747.943 930.958 748.656C930.571 754.839 930.453 758.667 930.606 760.141L930.881 761.202Z" fill="black"/>
</g>
<g style="mix-blend-mode:overlay">
<path fill-rule="evenodd" clip-rule="evenodd" d="M905 849H908.5H957.5H961L957.5 852.5V919.5L961 923H957.5H908.5H905L908.5 919.5V852.5L905 849ZM912.119 853.798C912.328 853.775 912.422 853.663 912.401 853.46C918.051 853.481 920.882 853.547 920.893 853.657C927.637 853.347 931.025 853.344 931.056 853.648L930.307 859.836C930.767 867.828 930.621 871.865 929.868 871.945L925.76 872.384C923.756 872.598 919.645 872.571 913.428 872.303L912.816 872.369C912.49 872.236 912.32 872.096 912.305 871.948C911.992 868.925 911.904 867.057 912.042 866.344C912.429 860.161 912.547 856.333 912.394 854.859L912.119 853.798ZM935.119 853.798C935.328 853.775 935.422 853.663 935.401 853.46C941.051 853.481 943.882 853.547 943.893 853.657C950.637 853.347 954.025 853.344 954.056 853.648L953.307 859.836C953.767 867.828 953.621 871.865 952.868 871.945L948.76 872.384C946.756 872.598 942.645 872.571 936.428 872.303L935.816 872.369C935.49 872.236 935.32 872.096 935.305 871.948C934.992 868.925 934.904 867.057 935.042 866.344C935.429 860.161 935.547 856.333 935.394 854.859L935.119 853.798ZM912.401 876.46C912.422 876.663 912.328 876.775 912.119 876.798L912.394 877.859C912.547 879.333 912.429 883.161 912.042 889.344C911.904 890.057 911.992 891.925 912.305 894.948C912.32 895.096 912.49 895.236 912.816 895.369L913.428 895.303C919.645 895.571 923.756 895.598 925.76 895.384L929.868 894.945C930.621 894.865 930.767 890.828 930.307 882.836L931.056 876.648C931.025 876.344 927.637 876.347 920.893 876.657C920.882 876.547 918.051 876.481 912.401 876.46ZM935.298 895.381C935.275 895.172 935.163 895.078 934.96 895.099C934.981 889.449 935.047 886.618 935.157 886.607C934.847 879.863 934.844 876.475 935.148 876.444L941.336 877.193C949.328 876.733 953.365 876.879 953.445 877.632L953.884 881.74C954.098 883.744 954.071 887.855 953.803 894.072L953.869 894.684C953.736 895.01 953.596 895.18 953.448 895.195C950.425 895.508 948.557 895.596 947.844 895.458C941.661 895.071 937.833 894.953 936.359 895.106L935.298 895.381ZM954.04 899.901C953.837 899.922 953.725 899.828 953.702 899.619L952.641 899.894C951.167 900.047 947.339 899.929 941.156 899.542C940.443 899.404 938.575 899.492 935.552 899.805C935.404 899.82 935.264 899.99 935.131 900.316L935.197 900.928C934.929 907.145 934.902 911.256 935.116 913.26L935.555 917.368C935.635 918.121 939.672 918.267 947.664 917.807L953.852 918.556C954.156 918.525 954.153 915.137 953.843 908.393C953.953 908.382 954.019 905.551 954.04 899.901ZM930.881 918.202C930.672 918.225 930.578 918.337 930.599 918.54C924.949 918.519 922.118 918.453 922.107 918.343C915.363 918.653 911.975 918.656 911.944 918.352L912.693 912.164C912.233 904.172 912.379 900.135 913.132 900.055L917.24 899.616C919.244 899.402 923.355 899.429 929.572 899.697L930.184 899.631C930.51 899.764 930.68 899.904 930.695 900.052C931.008 903.075 931.096 904.943 930.958 905.656C930.571 911.839 930.453 915.667 930.606 917.141L930.881 918.202Z" fill="black"/>
</g>
<path d="M1024 320.5L1249.5 315.5L1255 898H1024V320.5Z" fill="#FF7E7E"/>
<path d="M1248.91 310C1251.24 310 1253.27 320.411 1255 341.232C1255 343.318 1254.54 350.021 1253.61 361.339C1254.1 371.151 1254.34 889.732 1254.34 894.6C1254.34 896.377 1249.15 898.115 1238.78 899.815C1204.28 902.867 1038.11 900.03 1028.46 901.305C1028.46 901.768 1028.02 902 1027.13 902C1023.07 902 1021.04 902.197 1021.04 886.59C1019.83 882.766 1018.71 353.169 1017.66 326.283C1017.22 326.283 1017 325.413 1017 323.675C1017.92 320.623 1019.27 319.097 1021.04 319.097C1024.34 319.097 1194.33 316.065 1242.82 310H1248.91ZM1025.81 324.95L1023.75 326.283C1025.2 356.259 1027.01 883.052 1029.18 894.177L1030.51 894.815C1037.18 893.965 1201.99 897.034 1236.73 894.02C1243.96 892.977 1247.58 893.159 1247.58 892V885.796C1247.58 875.018 1248.02 347.548 1248.91 341.87C1248.02 331.71 1246.68 323.269 1244.87 316.548H1244.2C1239.32 318.406 1071.04 322.362 1026.47 324.95H1025.81Z" fill="black"/>
<g style="mix-blend-mode:overlay">
<path fill-rule="evenodd" clip-rule="evenodd" d="M1106 378H1109.5H1158.5H1162L1158.5 381.5V448.5L1162 452H1158.5H1109.5H1106L1109.5 448.5V381.5L1106 378ZM1113.12 382.798C1113.33 382.775 1113.42 382.663 1113.4 382.46C1119.05 382.481 1121.88 382.547 1121.89 382.657C1128.64 382.347 1132.03 382.344 1132.06 382.648L1131.31 388.836C1131.77 396.828 1131.62 400.865 1130.87 400.945L1126.76 401.384C1124.76 401.598 1120.65 401.571 1114.43 401.303L1113.82 401.369C1113.49 401.236 1113.32 401.096 1113.3 400.948C1112.99 397.925 1112.9 396.057 1113.04 395.344C1113.43 389.161 1113.55 385.333 1113.39 383.859L1113.12 382.798ZM1136.12 382.798C1136.33 382.775 1136.42 382.663 1136.4 382.46C1142.05 382.481 1144.88 382.547 1144.89 382.657C1151.64 382.347 1155.03 382.344 1155.06 382.648L1154.31 388.836C1154.77 396.828 1154.62 400.865 1153.87 400.945L1149.76 401.384C1147.76 401.598 1143.65 401.571 1137.43 401.303L1136.82 401.369C1136.49 401.236 1136.32 401.096 1136.3 400.948C1135.99 397.925 1135.9 396.057 1136.04 395.344C1136.43 389.161 1136.55 385.333 1136.39 383.859L1136.12 382.798ZM1113.4 405.46C1113.42 405.663 1113.33 405.775 1113.12 405.798L1113.39 406.859C1113.55 408.333 1113.43 412.161 1113.04 418.344C1112.9 419.057 1112.99 420.925 1113.3 423.948C1113.32 424.096 1113.49 424.236 1113.82 424.369L1114.43 424.303C1120.65 424.571 1124.76 424.598 1126.76 424.384L1130.87 423.945C1131.62 423.865 1131.77 419.828 1131.31 411.836L1132.06 405.648C1132.03 405.344 1128.64 405.347 1121.89 405.657C1121.88 405.547 1119.05 405.481 1113.4 405.46ZM1136.3 424.381C1136.28 424.172 1136.16 424.078 1135.96 424.099C1135.98 418.449 1136.05 415.618 1136.16 415.607C1135.85 408.863 1135.84 405.475 1136.15 405.444L1142.34 406.193C1150.33 405.733 1154.36 405.879 1154.45 406.632L1154.88 410.74C1155.1 412.744 1155.07 416.855 1154.8 423.072L1154.87 423.684C1154.74 424.01 1154.6 424.18 1154.45 424.195C1151.43 424.508 1149.56 424.596 1148.84 424.458C1142.66 424.071 1138.83 423.953 1137.36 424.106L1136.3 424.381ZM1155.04 428.901C1154.84 428.922 1154.72 428.828 1154.7 428.619L1153.64 428.894C1152.17 429.047 1148.34 428.929 1142.16 428.542C1141.44 428.404 1139.57 428.492 1136.55 428.805C1136.4 428.82 1136.26 428.99 1136.13 429.316L1136.2 429.928C1135.93 436.145 1135.9 440.256 1136.12 442.26L1136.55 446.368C1136.64 447.121 1140.67 447.267 1148.66 446.807L1154.85 447.556C1155.16 447.525 1155.15 444.137 1154.84 437.393C1154.95 437.382 1155.02 434.551 1155.04 428.901ZM1131.88 447.202C1131.67 447.225 1131.58 447.337 1131.6 447.54C1125.95 447.519 1123.12 447.453 1123.11 447.343C1116.36 447.653 1112.97 447.656 1112.94 447.352L1113.69 441.164C1113.23 433.172 1113.38 429.135 1114.13 429.055L1118.24 428.616C1120.24 428.402 1124.35 428.429 1130.57 428.697L1131.18 428.631C1131.51 428.764 1131.68 428.904 1131.7 429.052C1132.01 432.075 1132.1 433.943 1131.96 434.656C1131.57 440.839 1131.45 444.667 1131.61 446.141L1131.88 447.202Z" fill="black"/>
</g>
<g style="mix-blend-mode:overlay">
<path fill-rule="evenodd" clip-rule="evenodd" d="M1109 535H1112.5H1161.5H1165L1161.5 538.5V605.5L1165 609H1161.5H1112.5H1109L1112.5 605.5V538.5L1109 535ZM1116.12 539.798C1116.33 539.775 1116.42 539.663 1116.4 539.46C1122.05 539.481 1124.88 539.547 1124.89 539.657C1131.64 539.347 1135.03 539.344 1135.06 539.648L1134.31 545.836C1134.77 553.828 1134.62 557.865 1133.87 557.945L1129.76 558.384C1127.76 558.598 1123.65 558.571 1117.43 558.303L1116.82 558.369C1116.49 558.236 1116.32 558.096 1116.3 557.948C1115.99 554.925 1115.9 553.057 1116.04 552.344C1116.43 546.161 1116.55 542.333 1116.39 540.859L1116.12 539.798ZM1139.12 539.798C1139.33 539.775 1139.42 539.663 1139.4 539.46C1145.05 539.481 1147.88 539.547 1147.89 539.657C1154.64 539.347 1158.03 539.344 1158.06 539.648L1157.31 545.836C1157.77 553.828 1157.62 557.865 1156.87 557.945L1152.76 558.384C1150.76 558.598 1146.65 558.571 1140.43 558.303L1139.82 558.369C1139.49 558.236 1139.32 558.096 1139.3 557.948C1138.99 554.925 1138.9 553.057 1139.04 552.344C1139.43 546.161 1139.55 542.333 1139.39 540.859L1139.12 539.798ZM1116.4 562.46C1116.42 562.663 1116.33 562.775 1116.12 562.798L1116.39 563.859C1116.55 565.333 1116.43 569.161 1116.04 575.344C1115.9 576.057 1115.99 577.925 1116.3 580.948C1116.32 581.096 1116.49 581.236 1116.82 581.369L1117.43 581.303C1123.65 581.571 1127.76 581.598 1129.76 581.384L1133.87 580.945C1134.62 580.865 1134.77 576.828 1134.31 568.836L1135.06 562.648C1135.03 562.344 1131.64 562.347 1124.89 562.657C1124.88 562.547 1122.05 562.481 1116.4 562.46ZM1139.3 581.381C1139.28 581.172 1139.16 581.078 1138.96 581.099C1138.98 575.449 1139.05 572.618 1139.16 572.607C1138.85 565.863 1138.84 562.475 1139.15 562.444L1145.34 563.193C1153.33 562.733 1157.36 562.879 1157.45 563.632L1157.88 567.74C1158.1 569.744 1158.07 573.855 1157.8 580.072L1157.87 580.684C1157.74 581.01 1157.6 581.18 1157.45 581.195C1154.43 581.508 1152.56 581.596 1151.84 581.458C1145.66 581.071 1141.83 580.953 1140.36 581.106L1139.3 581.381ZM1158.04 585.901C1157.84 585.922 1157.72 585.828 1157.7 585.619L1156.64 585.894C1155.17 586.047 1151.34 585.929 1145.16 585.542C1144.44 585.404 1142.57 585.492 1139.55 585.805C1139.4 585.82 1139.26 585.99 1139.13 586.316L1139.2 586.928C1138.93 593.145 1138.9 597.256 1139.12 599.26L1139.55 603.368C1139.64 604.121 1143.67 604.267 1151.66 603.807L1157.85 604.556C1158.16 604.525 1158.15 601.137 1157.84 594.393C1157.95 594.382 1158.02 591.551 1158.04 585.901ZM1134.88 604.202C1134.67 604.225 1134.58 604.337 1134.6 604.54C1128.95 604.519 1126.12 604.453 1126.11 604.343C1119.36 604.653 1115.97 604.656 1115.94 604.352L1116.69 598.164C1116.23 590.172 1116.38 586.135 1117.13 586.055L1121.24 585.616C1123.24 585.402 1127.35 585.429 1133.57 585.697L1134.18 585.631C1134.51 585.764 1134.68 585.904 1134.7 586.052C1135.01 589.075 1135.1 590.943 1134.96 591.656C1134.57 597.839 1134.45 601.667 1134.61 603.141L1134.88 604.202Z" fill="black"/>
</g>
<g style="mix-blend-mode:overlay">
<path fill-rule="evenodd" clip-rule="evenodd" d="M1106 692H1109.5H1158.5H1162L1158.5 695.5V762.5L1162 766H1158.5H1109.5H1106L1109.5 762.5V695.5L1106 692ZM1113.12 696.798C1113.33 696.775 1113.42 696.663 1113.4 696.46C1119.05 696.481 1121.88 696.547 1121.89 696.657C1128.64 696.347 1132.03 696.344 1132.06 696.648L1131.31 702.836C1131.77 710.828 1131.62 714.865 1130.87 714.945L1126.76 715.384C1124.76 715.598 1120.65 715.571 1114.43 715.303L1113.82 715.369C1113.49 715.236 1113.32 715.096 1113.3 714.948C1112.99 711.925 1112.9 710.057 1113.04 709.344C1113.43 703.161 1113.55 699.333 1113.39 697.859L1113.12 696.798ZM1136.12 696.798C1136.33 696.775 1136.42 696.663 1136.4 696.46C1142.05 696.481 1144.88 696.547 1144.89 696.657C1151.64 696.347 1155.03 696.344 1155.06 696.648L1154.31 702.836C1154.77 710.828 1154.62 714.865 1153.87 714.945L1149.76 715.384C1147.76 715.598 1143.65 715.571 1137.43 715.303L1136.82 715.369C1136.49 715.236 1136.32 715.096 1136.3 714.948C1135.99 711.925 1135.9 710.057 1136.04 709.344C1136.43 703.161 1136.55 699.333 1136.39 697.859L1136.12 696.798ZM1113.4 719.46C1113.42 719.663 1113.33 719.775 1113.12 719.798L1113.39 720.859C1113.55 722.333 1113.43 726.161 1113.04 732.344C1112.9 733.057 1112.99 734.925 1113.3 737.948C1113.32 738.096 1113.49 738.236 1113.82 738.369L1114.43 738.303C1120.65 738.571 1124.76 738.598 1126.76 738.384L1130.87 737.945C1131.62 737.865 1131.77 733.828 1131.31 725.836L1132.06 719.648C1132.03 719.344 1128.64 719.347 1121.89 719.657C1121.88 719.547 1119.05 719.481 1113.4 719.46ZM1136.3 738.381C1136.28 738.172 1136.16 738.078 1135.96 738.099C1135.98 732.449 1136.05 729.618 1136.16 729.607C1135.85 722.863 1135.84 719.475 1136.15 719.444L1142.34 720.193C1150.33 719.733 1154.36 719.879 1154.45 720.632L1154.88 724.74C1155.1 726.744 1155.07 730.855 1154.8 737.072L1154.87 737.684C1154.74 738.01 1154.6 738.18 1154.45 738.195C1151.43 738.508 1149.56 738.596 1148.84 738.458C1142.66 738.071 1138.83 737.953 1137.36 738.106L1136.3 738.381ZM1155.04 742.901C1154.84 742.922 1154.72 742.828 1154.7 742.619L1153.64 742.894C1152.17 743.047 1148.34 742.929 1142.16 742.542C1141.44 742.404 1139.57 742.492 1136.55 742.805C1136.4 742.82 1136.26 742.99 1136.13 743.316L1136.2 743.928C1135.93 750.145 1135.9 754.256 1136.12 756.26L1136.55 760.368C1136.64 761.121 1140.67 761.267 1148.66 760.807L1154.85 761.556C1155.16 761.525 1155.15 758.137 1154.84 751.393C1154.95 751.382 1155.02 748.551 1155.04 742.901ZM1131.88 761.202C1131.67 761.225 1131.58 761.337 1131.6 761.54C1125.95 761.519 1123.12 761.453 1123.11 761.343C1116.36 761.653 1112.97 761.656 1112.94 761.352L1113.69 755.164C1113.23 747.172 1113.38 743.135 1114.13 743.055L1118.24 742.616C1120.24 742.402 1124.35 742.429 1130.57 742.697L1131.18 742.631C1131.51 742.764 1131.68 742.904 1131.7 743.052C1132.01 746.075 1132.1 747.943 1131.96 748.656C1131.57 754.839 1131.45 758.667 1131.61 760.141L1131.88 761.202Z" fill="black"/>
</g>
<g style="mix-blend-mode:overlay">
<path fill-rule="evenodd" clip-rule="evenodd" d="M1106 849H1109.5H1158.5H1162L1158.5 852.5V919.5L1162 923H1158.5H1109.5H1106L1109.5 919.5V852.5L1106 849ZM1113.12 853.798C1113.33 853.775 1113.42 853.663 1113.4 853.46C1119.05 853.481 1121.88 853.547 1121.89 853.657C1128.64 853.347 1132.03 853.344 1132.06 853.648L1131.31 859.836C1131.77 867.828 1131.62 871.865 1130.87 871.945L1126.76 872.384C1124.76 872.598 1120.65 872.571 1114.43 872.303L1113.82 872.369C1113.49 872.236 1113.32 872.096 1113.3 871.948C1112.99 868.925 1112.9 867.057 1113.04 866.344C1113.43 860.161 1113.55 856.333 1113.39 854.859L1113.12 853.798ZM1136.12 853.798C1136.33 853.775 1136.42 853.663 1136.4 853.46C1142.05 853.481 1144.88 853.547 1144.89 853.657C1151.64 853.347 1155.03 853.344 1155.06 853.648L1154.31 859.836C1154.77 867.828 1154.62 871.865 1153.87 871.945L1149.76 872.384C1147.76 872.598 1143.65 872.571 1137.43 872.303L1136.82 872.369C1136.49 872.236 1136.32 872.096 1136.3 871.948C1135.99 868.925 1135.9 867.057 1136.04 866.344C1136.43 860.161 1136.55 856.333 1136.39 854.859L1136.12 853.798ZM1113.4 876.46C1113.42 876.663 1113.33 876.775 1113.12 876.798L1113.39 877.859C1113.55 879.333 1113.43 883.161 1113.04 889.344C1112.9 890.057 1112.99 891.925 1113.3 894.948C1113.32 895.096 1113.49 895.236 1113.82 895.369L1114.43 895.303C1120.65 895.571 1124.76 895.598 1126.76 895.384L1130.87 894.945C1131.62 894.865 1131.77 890.828 1131.31 882.836L1132.06 876.648C1132.03 876.344 1128.64 876.347 1121.89 876.657C1121.88 876.547 1119.05 876.481 1113.4 876.46ZM1136.3 895.381C1136.28 895.172 1136.16 895.078 1135.96 895.099C1135.98 889.449 1136.05 886.618 1136.16 886.607C1135.85 879.863 1135.84 876.475 1136.15 876.444L1142.34 877.193C1150.33 876.733 1154.36 876.879 1154.45 877.632L1154.88 881.74C1155.1 883.744 1155.07 887.855 1154.8 894.072L1154.87 894.684C1154.74 895.01 1154.6 895.18 1154.45 895.195C1151.43 895.508 1149.56 895.596 1148.84 895.458C1142.66 895.071 1138.83 894.953 1137.36 895.106L1136.3 895.381ZM1155.04 899.901C1154.84 899.922 1154.72 899.828 1154.7 899.619L1153.64 899.894C1152.17 900.047 1148.34 899.929 1142.16 899.542C1141.44 899.404 1139.57 899.492 1136.55 899.805C1136.4 899.82 1136.26 899.99 1136.13 900.316L1136.2 900.928C1135.93 907.145 1135.9 911.256 1136.12 913.26L1136.55 917.368C1136.64 918.121 1140.67 918.267 1148.66 917.807L1154.85 918.556C1155.16 918.525 1155.15 915.137 1154.84 908.393C1154.95 908.382 1155.02 905.551 1155.04 899.901ZM1131.88 918.202C1131.67 918.225 1131.58 918.337 1131.6 918.54C1125.95 918.519 1123.12 918.453 1123.11 918.343C1116.36 918.653 1112.97 918.656 1112.94 918.352L1113.69 912.164C1113.23 904.172 1113.38 900.135 1114.13 900.055L1118.24 899.616C1120.24 899.402 1124.35 899.429 1130.57 899.697L1131.18 899.631C1131.51 899.764 1131.68 899.904 1131.7 900.052C1132.01 903.075 1132.1 904.943 1131.96 905.656C1131.57 911.839 1131.45 915.667 1131.61 917.141L1131.88 918.202Z" fill="black"/>
</g>
<path d="M1250 5.5H1440V898H1250V5.5Z" fill="#B48383"/>
<path d="M1247.72 2.87214L1249.68 2.49201C1258.89 2.97082 1388.1 2.14015 1417.33 0C1432.35 1.10013 1441.02 2.10082 1443.35 3.00205L1443.71 4.90012C1443.05 10.4813 1442.55 21.721 1442.21 38.6191C1440.82 45.177 1440.06 876.476 1439.94 896.516C1439.32 896.635 1438.82 897.41 1438.42 898.841C1431.4 900.205 1301.91 900.869 1269.95 900.834C1254.25 902.573 1246.19 902.349 1245.77 900.163C1245.27 883.904 1245.02 41.66 1245 9.43046C1245.69 5.39689 1246.6 3.21078 1247.72 2.87214ZM1251.7 9.50117C1251.21 41.3525 1251.25 881.409 1251.85 893.669C1252.26 895.816 1261.02 896.124 1278.11 894.593L1425.43 894.025C1428.46 893.872 1430.86 893.625 1432.62 893.282C1433.74 892.07 1434.22 66.1781 1434.05 51.6061C1436.21 37.5371 1437.01 23.3343 1436.45 8.99773C1431.81 7.2336 1422.09 6.45706 1407.29 6.6681C1395.11 7.68241 1269.91 8.62676 1251.7 9.50117Z" fill="black"/>
<g style="mix-blend-mode:overlay">
<path fill-rule="evenodd" clip-rule="evenodd" d="M1316 221H1319.5H1368.5H1372L1368.5 224.5V291.5L1372 295H1368.5H1319.5H1316L1319.5 291.5V224.5L1316 221ZM1323.12 225.798C1323.33 225.775 1323.42 225.663 1323.4 225.46C1329.05 225.481 1331.88 225.547 1331.89 225.657C1338.64 225.347 1342.03 225.344 1342.06 225.648L1341.31 231.836C1341.77 239.828 1341.62 243.865 1340.87 243.945L1336.76 244.384C1334.76 244.598 1330.65 244.571 1324.43 244.303L1323.82 244.369C1323.49 244.236 1323.32 244.096 1323.3 243.948C1322.99 240.925 1322.9 239.057 1323.04 238.344C1323.43 232.161 1323.55 228.333 1323.39 226.859L1323.12 225.798ZM1346.12 225.798C1346.33 225.775 1346.42 225.663 1346.4 225.46C1352.05 225.481 1354.88 225.547 1354.89 225.657C1361.64 225.347 1365.03 225.344 1365.06 225.648L1364.31 231.836C1364.77 239.828 1364.62 243.865 1363.87 243.945L1359.76 244.384C1357.76 244.598 1353.65 244.571 1347.43 244.303L1346.82 244.369C1346.49 244.236 1346.32 244.096 1346.3 243.948C1345.99 240.925 1345.9 239.057 1346.04 238.344C1346.43 232.161 1346.55 228.333 1346.39 226.859L1346.12 225.798ZM1323.4 248.46C1323.42 248.663 1323.33 248.775 1323.12 248.798L1323.39 249.859C1323.55 251.333 1323.43 255.161 1323.04 261.344C1322.9 262.057 1322.99 263.925 1323.3 266.948C1323.32 267.096 1323.49 267.236 1323.82 267.369L1324.43 267.303C1330.65 267.571 1334.76 267.598 1336.76 267.384L1340.87 266.945C1341.62 266.865 1341.77 262.828 1341.31 254.836L1342.06 248.648C1342.03 248.344 1338.64 248.347 1331.89 248.657C1331.88 248.547 1329.05 248.481 1323.4 248.46ZM1346.3 267.381C1346.28 267.172 1346.16 267.078 1345.96 267.099C1345.98 261.449 1346.05 258.618 1346.16 258.607C1345.85 251.863 1345.84 248.475 1346.15 248.444L1352.34 249.193C1360.33 248.733 1364.36 248.879 1364.45 249.632L1364.88 253.74C1365.1 255.744 1365.07 259.855 1364.8 266.072L1364.87 266.684C1364.74 267.01 1364.6 267.18 1364.45 267.195C1361.43 267.508 1359.56 267.596 1358.84 267.458C1352.66 267.071 1348.83 266.953 1347.36 267.106L1346.3 267.381ZM1365.04 271.901C1364.84 271.922 1364.72 271.828 1364.7 271.619L1363.64 271.894C1362.17 272.047 1358.34 271.929 1352.16 271.542C1351.44 271.404 1349.57 271.492 1346.55 271.805C1346.4 271.82 1346.26 271.99 1346.13 272.316L1346.2 272.928C1345.93 279.145 1345.9 283.256 1346.12 285.26L1346.55 289.368C1346.64 290.121 1350.67 290.267 1358.66 289.807L1364.85 290.556C1365.16 290.525 1365.15 287.137 1364.84 280.393C1364.95 280.382 1365.02 277.551 1365.04 271.901ZM1341.88 290.202C1341.67 290.225 1341.58 290.337 1341.6 290.54C1335.95 290.519 1333.12 290.453 1333.11 290.343C1326.36 290.653 1322.97 290.656 1322.94 290.352L1323.69 284.164C1323.23 276.172 1323.38 272.135 1324.13 272.055L1328.24 271.616C1330.24 271.402 1334.35 271.429 1340.57 271.697L1341.18 271.631C1341.51 271.764 1341.68 271.904 1341.7 272.052C1342.01 275.075 1342.1 276.943 1341.96 277.656C1341.57 283.839 1341.45 287.667 1341.61 289.141L1341.88 290.202Z" fill="black"/>
</g>
<g style="mix-blend-mode:overlay">
<path fill-rule="evenodd" clip-rule="evenodd" d="M1316 64H1319.5H1368.5H1372L1368.5 67.5V134.5L1372 138H1368.5H1319.5H1316L1319.5 134.5V67.5L1316 64ZM1323.12 68.7976C1323.33 68.7753 1323.42 68.6628 1323.4 68.4601C1329.05 68.4809 1331.88 68.5466 1331.89 68.6571C1338.64 68.3468 1342.03 68.3437 1342.06 68.6479L1341.31 74.8359C1341.77 82.8284 1341.62 86.8648 1340.87 86.9452L1336.76 87.384C1334.76 87.5981 1330.65 87.5713 1324.43 87.3035L1323.82 87.3689C1323.49 87.2359 1323.32 87.0957 1323.3 86.9482C1322.99 83.9253 1322.9 82.057 1323.04 81.3435C1323.43 75.1615 1323.55 71.3331 1323.39 69.8585L1323.12 68.7976ZM1346.12 68.7976C1346.33 68.7753 1346.42 68.6628 1346.4 68.4601C1352.05 68.4809 1354.88 68.5466 1354.89 68.6571C1361.64 68.3468 1365.03 68.3437 1365.06 68.6479L1364.31 74.8359C1364.77 82.8284 1364.62 86.8648 1363.87 86.9452L1359.76 87.384C1357.76 87.5981 1353.65 87.5713 1347.43 87.3035L1346.82 87.3689C1346.49 87.2359 1346.32 87.0957 1346.3 86.9482C1345.99 83.9253 1345.9 82.057 1346.04 81.3435C1346.43 75.1615 1346.55 71.3331 1346.39 69.8585L1346.12 68.7976ZM1323.4 91.4601C1323.42 91.6628 1323.33 91.7753 1323.12 91.7976L1323.39 92.8585C1323.55 94.3331 1323.43 98.1615 1323.04 104.344C1322.9 105.057 1322.99 106.925 1323.3 109.948C1323.32 110.096 1323.49 110.236 1323.82 110.369L1324.43 110.303C1330.65 110.571 1334.76 110.598 1336.76 110.384L1340.87 109.945C1341.62 109.865 1341.77 105.828 1341.31 97.8359L1342.06 91.6479C1342.03 91.3437 1338.64 91.3468 1331.89 91.6571C1331.88 91.5466 1329.05 91.4809 1323.4 91.4601ZM1346.3 110.381C1346.28 110.172 1346.16 110.078 1345.96 110.099C1345.98 104.449 1346.05 101.618 1346.16 101.607C1345.85 94.8626 1345.84 91.475 1346.15 91.4435L1352.34 92.1926C1360.33 91.7328 1364.36 91.8792 1364.45 92.632L1364.88 96.7402C1365.1 98.7444 1365.07 102.855 1364.8 109.072L1364.87 109.684C1364.74 110.01 1364.6 110.18 1364.45 110.195C1361.43 110.508 1359.56 110.596 1358.84 110.458C1352.66 110.071 1348.83 109.953 1347.36 110.106L1346.3 110.381ZM1365.04 114.901C1364.84 114.922 1364.72 114.828 1364.7 114.619L1363.64 114.894C1362.17 115.047 1358.34 114.929 1352.16 114.542C1351.44 114.404 1349.57 114.492 1346.55 114.805C1346.4 114.82 1346.26 114.99 1346.13 115.316L1346.2 115.928C1345.93 122.145 1345.9 126.256 1346.12 128.26L1346.55 132.368C1346.64 133.121 1350.67 133.267 1358.66 132.807L1364.85 133.556C1365.16 133.525 1365.15 130.137 1364.84 123.393C1364.95 123.382 1365.02 120.551 1365.04 114.901ZM1341.88 133.202C1341.67 133.225 1341.58 133.337 1341.6 133.54C1335.95 133.519 1333.12 133.453 1333.11 133.343C1326.36 133.653 1322.97 133.656 1322.94 133.352L1323.69 127.164C1323.23 119.172 1323.38 115.135 1324.13 115.055L1328.24 114.616C1330.24 114.402 1334.35 114.429 1340.57 114.697L1341.18 114.631C1341.51 114.764 1341.68 114.904 1341.7 115.052C1342.01 118.075 1342.1 119.943 1341.96 120.656C1341.57 126.839 1341.45 130.667 1341.61 132.141L1341.88 133.202Z" fill="black"/>
</g>
<g style="mix-blend-mode:overlay">
<path fill-rule="evenodd" clip-rule="evenodd" d="M1317 535H1320.5H1369.5H1373L1369.5 538.5V605.5L1373 609H1369.5H1320.5H1317L1320.5 605.5V538.5L1317 535ZM1324.12 539.798C1324.33 539.775 1324.42 539.663 1324.4 539.46C1330.05 539.481 1332.88 539.547 1332.89 539.657C1339.64 539.347 1343.03 539.344 1343.06 539.648L1342.31 545.836C1342.77 553.828 1342.62 557.865 1341.87 557.945L1337.76 558.384C1335.76 558.598 1331.65 558.571 1325.43 558.303L1324.82 558.369C1324.49 558.236 1324.32 558.096 1324.3 557.948C1323.99 554.925 1323.9 553.057 1324.04 552.344C1324.43 546.161 1324.55 542.333 1324.39 540.859L1324.12 539.798ZM1347.12 539.798C1347.33 539.775 1347.42 539.663 1347.4 539.46C1353.05 539.481 1355.88 539.547 1355.89 539.657C1362.64 539.347 1366.03 539.344 1366.06 539.648L1365.31 545.836C1365.77 553.828 1365.62 557.865 1364.87 557.945L1360.76 558.384C1358.76 558.598 1354.65 558.571 1348.43 558.303L1347.82 558.369C1347.49 558.236 1347.32 558.096 1347.3 557.948C1346.99 554.925 1346.9 553.057 1347.04 552.344C1347.43 546.161 1347.55 542.333 1347.39 540.859L1347.12 539.798ZM1324.4 562.46C1324.42 562.663 1324.33 562.775 1324.12 562.798L1324.39 563.859C1324.55 565.333 1324.43 569.161 1324.04 575.344C1323.9 576.057 1323.99 577.925 1324.3 580.948C1324.32 581.096 1324.49 581.236 1324.82 581.369L1325.43 581.303C1331.65 581.571 1335.76 581.598 1337.76 581.384L1341.87 580.945C1342.62 580.865 1342.77 576.828 1342.31 568.836L1343.06 562.648C1343.03 562.344 1339.64 562.347 1332.89 562.657C1332.88 562.547 1330.05 562.481 1324.4 562.46ZM1347.3 581.381C1347.28 581.172 1347.16 581.078 1346.96 581.099C1346.98 575.449 1347.05 572.618 1347.16 572.607C1346.85 565.863 1346.84 562.475 1347.15 562.444L1353.34 563.193C1361.33 562.733 1365.36 562.879 1365.45 563.632L1365.88 567.74C1366.1 569.744 1366.07 573.855 1365.8 580.072L1365.87 580.684C1365.74 581.01 1365.6 581.18 1365.45 581.195C1362.43 581.508 1360.56 581.596 1359.84 581.458C1353.66 581.071 1349.83 580.953 1348.36 581.106L1347.3 581.381ZM1366.04 585.901C1365.84 585.922 1365.72 585.828 1365.7 585.619L1364.64 585.894C1363.17 586.047 1359.34 585.929 1353.16 585.542C1352.44 585.404 1350.57 585.492 1347.55 585.805C1347.4 585.82 1347.26 585.99 1347.13 586.316L1347.2 586.928C1346.93 593.145 1346.9 597.256 1347.12 599.26L1347.55 603.368C1347.64 604.121 1351.67 604.267 1359.66 603.807L1365.85 604.556C1366.16 604.525 1366.15 601.137 1365.84 594.393C1365.95 594.382 1366.02 591.551 1366.04 585.901ZM1342.88 604.202C1342.67 604.225 1342.58 604.337 1342.6 604.54C1336.95 604.519 1334.12 604.453 1334.11 604.343C1327.36 604.653 1323.97 604.656 1323.94 604.352L1324.69 598.164C1324.23 590.172 1324.38 586.135 1325.13 586.055L1329.24 585.616C1331.24 585.402 1335.35 585.429 1341.57 585.697L1342.18 585.631C1342.51 585.764 1342.68 585.904 1342.7 586.052C1343.01 589.075 1343.1 590.943 1342.96 591.656C1342.57 597.839 1342.45 601.667 1342.61 603.141L1342.88 604.202Z" fill="black"/>
</g>
<g style="mix-blend-mode:overlay">
<path fill-rule="evenodd" clip-rule="evenodd" d="M1317 378H1320.5H1369.5H1373L1369.5 381.5V448.5L1373 452H1369.5H1320.5H1317L1320.5 448.5V381.5L1317 378ZM1324.12 382.798C1324.33 382.775 1324.42 382.663 1324.4 382.46C1330.05 382.481 1332.88 382.547 1332.89 382.657C1339.64 382.347 1343.03 382.344 1343.06 382.648L1342.31 388.836C1342.77 396.828 1342.62 400.865 1341.87 400.945L1337.76 401.384C1335.76 401.598 1331.65 401.571 1325.43 401.303L1324.82 401.369C1324.49 401.236 1324.32 401.096 1324.3 400.948C1323.99 397.925 1323.9 396.057 1324.04 395.344C1324.43 389.161 1324.55 385.333 1324.39 383.859L1324.12 382.798ZM1347.12 382.798C1347.33 382.775 1347.42 382.663 1347.4 382.46C1353.05 382.481 1355.88 382.547 1355.89 382.657C1362.64 382.347 1366.03 382.344 1366.06 382.648L1365.31 388.836C1365.77 396.828 1365.62 400.865 1364.87 400.945L1360.76 401.384C1358.76 401.598 1354.65 401.571 1348.43 401.303L1347.82 401.369C1347.49 401.236 1347.32 401.096 1347.3 400.948C1346.99 397.925 1346.9 396.057 1347.04 395.344C1347.43 389.161 1347.55 385.333 1347.39 383.859L1347.12 382.798ZM1324.4 405.46C1324.42 405.663 1324.33 405.775 1324.12 405.798L1324.39 406.859C1324.55 408.333 1324.43 412.161 1324.04 418.344C1323.9 419.057 1323.99 420.925 1324.3 423.948C1324.32 424.096 1324.49 424.236 1324.82 424.369L1325.43 424.303C1331.65 424.571 1335.76 424.598 1337.76 424.384L1341.87 423.945C1342.62 423.865 1342.77 419.828 1342.31 411.836L1343.06 405.648C1343.03 405.344 1339.64 405.347 1332.89 405.657C1332.88 405.547 1330.05 405.481 1324.4 405.46ZM1347.3 424.381C1347.28 424.172 1347.16 424.078 1346.96 424.099C1346.98 418.449 1347.05 415.618 1347.16 415.607C1346.85 408.863 1346.84 405.475 1347.15 405.444L1353.34 406.193C1361.33 405.733 1365.36 405.879 1365.45 406.632L1365.88 410.74C1366.1 412.744 1366.07 416.855 1365.8 423.072L1365.87 423.684C1365.74 424.01 1365.6 424.18 1365.45 424.195C1362.43 424.508 1360.56 424.596 1359.84 424.458C1353.66 424.071 1349.83 423.953 1348.36 424.106L1347.3 424.381ZM1366.04 428.901C1365.84 428.922 1365.72 428.828 1365.7 428.619L1364.64 428.894C1363.17 429.047 1359.34 428.929 1353.16 428.542C1352.44 428.404 1350.57 428.492 1347.55 428.805C1347.4 428.82 1347.26 428.99 1347.13 429.316L1347.2 429.928C1346.93 436.145 1346.9 440.256 1347.12 442.26L1347.55 446.368C1347.64 447.121 1351.67 447.267 1359.66 446.807L1365.85 447.556C1366.16 447.525 1366.15 444.137 1365.84 437.393C1365.95 437.382 1366.02 434.551 1366.04 428.901ZM1342.88 447.202C1342.67 447.225 1342.58 447.337 1342.6 447.54C1336.95 447.519 1334.12 447.453 1334.11 447.343C1327.36 447.653 1323.97 447.656 1323.94 447.352L1324.69 441.164C1324.23 433.172 1324.38 429.135 1325.13 429.055L1329.24 428.616C1331.24 428.402 1335.35 428.429 1341.57 428.697L1342.18 428.631C1342.51 428.764 1342.68 428.904 1342.7 429.052C1343.01 432.075 1343.1 433.943 1342.96 434.656C1342.57 440.839 1342.45 444.667 1342.61 446.141L1342.88 447.202Z" fill="black"/>
</g>
<g style="mix-blend-mode:overlay">
<path fill-rule="evenodd" clip-rule="evenodd" d="M1317 692H1320.5H1369.5H1373L1369.5 695.5V762.5L1373 766H1369.5H1320.5H1317L1320.5 762.5V695.5L1317 692ZM1324.12 696.798C1324.33 696.775 1324.42 696.663 1324.4 696.46C1330.05 696.481 1332.88 696.547 1332.89 696.657C1339.64 696.347 1343.03 696.344 1343.06 696.648L1342.31 702.836C1342.77 710.828 1342.62 714.865 1341.87 714.945L1337.76 715.384C1335.76 715.598 1331.65 715.571 1325.43 715.303L1324.82 715.369C1324.49 715.236 1324.32 715.096 1324.3 714.948C1323.99 711.925 1323.9 710.057 1324.04 709.344C1324.43 703.161 1324.55 699.333 1324.39 697.859L1324.12 696.798ZM1347.12 696.798C1347.33 696.775 1347.42 696.663 1347.4 696.46C1353.05 696.481 1355.88 696.547 1355.89 696.657C1362.64 696.347 1366.03 696.344 1366.06 696.648L1365.31 702.836C1365.77 710.828 1365.62 714.865 1364.87 714.945L1360.76 715.384C1358.76 715.598 1354.65 715.571 1348.43 715.303L1347.82 715.369C1347.49 715.236 1347.32 715.096 1347.3 714.948C1346.99 711.925 1346.9 710.057 1347.04 709.344C1347.43 703.161 1347.55 699.333 1347.39 697.859L1347.12 696.798ZM1324.4 719.46C1324.42 719.663 1324.33 719.775 1324.12 719.798L1324.39 720.859C1324.55 722.333 1324.43 726.161 1324.04 732.344C1323.9 733.057 1323.99 734.925 1324.3 737.948C1324.32 738.096 1324.49 738.236 1324.82 738.369L1325.43 738.303C1331.65 738.571 1335.76 738.598 1337.76 738.384L1341.87 737.945C1342.62 737.865 1342.77 733.828 1342.31 725.836L1343.06 719.648C1343.03 719.344 1339.64 719.347 1332.89 719.657C1332.88 719.547 1330.05 719.481 1324.4 719.46ZM1347.3 738.381C1347.28 738.172 1347.16 738.078 1346.96 738.099C1346.98 732.449 1347.05 729.618 1347.16 729.607C1346.85 722.863 1346.84 719.475 1347.15 719.444L1353.34 720.193C1361.33 719.733 1365.36 719.879 1365.45 720.632L1365.88 724.74C1366.1 726.744 1366.07 730.855 1365.8 737.072L1365.87 737.684C1365.74 738.01 1365.6 738.18 1365.45 738.195C1362.43 738.508 1360.56 738.596 1359.84 738.458C1353.66 738.071 1349.83 737.953 1348.36 738.106L1347.3 738.381ZM1366.04 742.901C1365.84 742.922 1365.72 742.828 1365.7 742.619L1364.64 742.894C1363.17 743.047 1359.34 742.929 1353.16 742.542C1352.44 742.404 1350.57 742.492 1347.55 742.805C1347.4 742.82 1347.26 742.99 1347.13 743.316L1347.2 743.928C1346.93 750.145 1346.9 754.256 1347.12 756.26L1347.55 760.368C1347.64 761.121 1351.67 761.267 1359.66 760.807L1365.85 761.556C1366.16 761.525 1366.15 758.137 1365.84 751.393C1365.95 751.382 1366.02 748.551 1366.04 742.901ZM1342.88 761.202C1342.67 761.225 1342.58 761.337 1342.6 761.54C1336.95 761.519 1334.12 761.453 1334.11 761.343C1327.36 761.653 1323.97 761.656 1323.94 761.352L1324.69 755.164C1324.23 747.172 1324.38 743.135 1325.13 743.055L1329.24 742.616C1331.24 742.402 1335.35 742.429 1341.57 742.697L1342.18 742.631C1342.51 742.764 1342.68 742.904 1342.7 743.052C1343.01 746.075 1343.1 747.943 1342.96 748.656C1342.57 754.839 1342.45 758.667 1342.61 760.141L1342.88 761.202Z" fill="black"/>
</g>
<g style="mix-blend-mode:overlay">
<path fill-rule="evenodd" clip-rule="evenodd" d="M1317 849H1320.5H1369.5H1373L1369.5 852.5V919.5L1373 923H1369.5H1320.5H1317L1320.5 919.5V852.5L1317 849ZM1324.12 853.798C1324.33 853.775 1324.42 853.663 1324.4 853.46C1330.05 853.481 1332.88 853.547 1332.89 853.657C1339.64 853.347 1343.03 853.344 1343.06 853.648L1342.31 859.836C1342.77 867.828 1342.62 871.865 1341.87 871.945L1337.76 872.384C1335.76 872.598 1331.65 872.571 1325.43 872.303L1324.82 872.369C1324.49 872.236 1324.32 872.096 1324.3 871.948C1323.99 868.925 1323.9 867.057 1324.04 866.344C1324.43 860.161 1324.55 856.333 1324.39 854.859L1324.12 853.798ZM1347.12 853.798C1347.33 853.775 1347.42 853.663 1347.4 853.46C1353.05 853.481 1355.88 853.547 1355.89 853.657C1362.64 853.347 1366.03 853.344 1366.06 853.648L1365.31 859.836C1365.77 867.828 1365.62 871.865 1364.87 871.945L1360.76 872.384C1358.76 872.598 1354.65 872.571 1348.43 872.303L1347.82 872.369C1347.49 872.236 1347.32 872.096 1347.3 871.948C1346.99 868.925 1346.9 867.057 1347.04 866.344C1347.43 860.161 1347.55 856.333 1347.39 854.859L1347.12 853.798ZM1324.4 876.46C1324.42 876.663 1324.33 876.775 1324.12 876.798L1324.39 877.859C1324.55 879.333 1324.43 883.161 1324.04 889.344C1323.9 890.057 1323.99 891.925 1324.3 894.948C1324.32 895.096 1324.49 895.236 1324.82 895.369L1325.43 895.303C1331.65 895.571 1335.76 895.598 1337.76 895.384L1341.87 894.945C1342.62 894.865 1342.77 890.828 1342.31 882.836L1343.06 876.648C1343.03 876.344 1339.64 876.347 1332.89 876.657C1332.88 876.547 1330.05 876.481 1324.4 876.46ZM1347.3 895.381C1347.28 895.172 1347.16 895.078 1346.96 895.099C1346.98 889.449 1347.05 886.618 1347.16 886.607C1346.85 879.863 1346.84 876.475 1347.15 876.444L1353.34 877.193C1361.33 876.733 1365.36 876.879 1365.45 877.632L1365.88 881.74C1366.1 883.744 1366.07 887.855 1365.8 894.072L1365.87 894.684C1365.74 895.01 1365.6 895.18 1365.45 895.195C1362.43 895.508 1360.56 895.596 1359.84 895.458C1353.66 895.071 1349.83 894.953 1348.36 895.106L1347.3 895.381ZM1366.04 899.901C1365.84 899.922 1365.72 899.828 1365.7 899.619L1364.64 899.894C1363.17 900.047 1359.34 899.929 1353.16 899.542C1352.44 899.404 1350.57 899.492 1347.55 899.805C1347.4 899.82 1347.26 899.99 1347.13 900.316L1347.2 900.928C1346.93 907.145 1346.9 911.256 1347.12 913.26L1347.55 917.368C1347.64 918.121 1351.67 918.267 1359.66 917.807L1365.85 918.556C1366.16 918.525 1366.15 915.137 1365.84 908.393C1365.95 908.382 1366.02 905.551 1366.04 899.901ZM1342.88 918.202C1342.67 918.225 1342.58 918.337 1342.6 918.54C1336.95 918.519 1334.12 918.453 1334.11 918.343C1327.36 918.653 1323.97 918.656 1323.94 918.352L1324.69 912.164C1324.23 904.172 1324.38 900.135 1325.13 900.055L1329.24 899.616C1331.24 899.402 1335.35 899.429 1341.57 899.697L1342.18 899.631C1342.51 899.764 1342.68 899.904 1342.7 900.052C1343.01 903.075 1343.1 904.943 1342.96 905.656C1342.57 911.839 1342.45 915.667 1342.61 917.141L1342.88 918.202Z" fill="black"/>
</g>
</svg>
